<?xml version="1.0" encoding="UTF-8"?>
<!DOCTYPE svg PUBLIC "-//W3C//DTD SVG 1.1//EN" "http://www.w3.org/Graphics/SVG/1.1/DTD/svg11.dtd">
<!-- Creator: CorelDRAW X8 -->
<svg
  xmlns="http://www.w3.org/2000/svg"
  xmlSpace="preserve"
  width="113.505mm"
  height="36.194mm"
  version="1.1"
  style={{
    shapeRendering: "geometricPrecision",
    textRendering: "geometricPrecision",
    imageRendering: "optimizeQuality",
    fillRule: "evenodd",
    clipRule: "evenodd",
    fill: "#D79EFF",
  }}
  viewBox="0 0 6678 2129"
> 
  <path fill="#D79EFF" d="M661 1906c-1,0 -2,0 -2,1 -1,1 -2,1 -3,1 -4,1 -4,1 -9,1 1,0 2,-2 2,-1 0,1 2,-1 2,-1 5,-1 5,-1 10,-1zm6017 -1906l0 0c-3,12 -5,11 -14,18l-221 161c-12,10 -22,15 -35,24l-141 95c-83,53 -207,131 -294,180 -27,14 -50,27 -76,42 -39,23 -119,61 -154,82 -24,15 -52,27 -79,40l-158 78c23,-2 130,-56 164,-69 15,-7 24,-12 40,-19 15,-7 26,-11 40,-19 15,-7 25,-12 40,-19 14,-7 24,-11 38,-18l229 -122c25,-16 47,-27 72,-42l418 -282c18,-13 119,-95 131,-99l0 0c-4,11 -25,25 -35,32 -11,10 -23,19 -35,27l-300 215c-26,18 -50,33 -77,51 -59,38 -227,136 -285,165l-126 64c-90,45 -171,81 -264,122l-136 56c-8,3 -15,6 -22,9 -2,1 -10,4 -13,5 -8,4 -3,2 -8,6 14,-2 77,-27 96,-33 59,-20 256,-98 317,-129 15,-7 28,-12 43,-19 28,-14 55,-26 84,-41 31,-15 55,-29 85,-44 109,-54 253,-145 354,-216l322 -245 0 0c-1,10 3,5 -15,20l-445 323 -214 124c-227,115 -412,195 -655,276l-49 18c16,0 41,-9 53,-13l152 -46c304,-102 621,-247 880,-443l293 -232 0 0c-4,16 -61,58 -74,69 -160,134 -400,306 -588,400 -174,87 -231,106 -393,170 -35,14 -69,25 -106,38 -36,12 -70,22 -106,33l-216 61c0,0 -2,1 -2,2 17,0 41,-8 58,-12 129,-30 259,-62 383,-104l203 -75c222,-91 419,-218 608,-362l115 -94c8,-7 10,-10 18,-17 22,-18 73,-67 93,-77 -4,16 -61,56 -76,70 -50,47 -106,91 -160,132l-168 121c-321,215 -652,335 -1028,415l-114 26c0,-1 -1,0 -2,1 45,0 197,-32 241,-41 78,-16 151,-33 224,-54 388,-109 606,-251 901,-490l57 -48c7,-5 11,-10 18,-16l37 -33c11,-10 24,-27 38,-31 -18,28 -101,94 -132,121l-59 49c-14,11 -27,21 -41,32 -27,22 -53,42 -81,62 -13,10 -27,21 -42,31 -16,11 -27,19 -43,30 -73,48 -148,96 -226,135 -17,9 -31,16 -47,23 -19,8 -31,14 -50,23 -18,7 -35,15 -51,22 -34,14 -67,28 -103,40 -187,66 -380,109 -578,142 -19,3 -42,6 -63,10 -14,2 -29,2 -44,8l-9 5c-1,-1 -2,0 -3,1 41,-1 87,-9 126,-14 354,-41 647,-116 948,-301 84,-51 250,-172 319,-237l145 -130c-5,19 -89,87 -112,107 -136,121 -296,246 -456,327 -11,5 -14,8 -25,14 -224,120 -492,181 -743,217 -42,6 -83,9 -128,14 -27,4 -96,2 -122,20 25,0 38,-4 66,-3 27,0 39,-4 66,-4l127 -9c43,-6 82,-7 125,-14 80,-11 153,-24 231,-44 71,-17 140,-39 208,-66 18,-8 31,-13 49,-21 107,-46 212,-105 307,-173 66,-47 133,-96 194,-150 7,-7 11,-9 19,-16l35 -31c8,-8 10,-9 19,-16 19,-16 89,-91 108,-96 -9,15 -23,24 -37,36 -13,10 -22,23 -35,34l-229 192c-16,11 -27,19 -42,31 -14,11 -26,18 -41,29 -54,39 -113,75 -172,106 -95,49 -193,94 -297,123 -119,34 -227,56 -352,72 -19,3 -41,4 -63,7l-262 17c-29,-1 -40,5 -63,7 8,10 10,7 28,7l174 0c26,0 41,-4 63,-4 91,-1 169,-10 250,-21 210,-29 417,-105 594,-220 97,-62 262,-184 344,-268l106 -96c-5,18 -23,25 -36,37l-221 196c-14,11 -26,21 -39,31 -14,11 -28,20 -42,31l-125 84c-57,38 -120,67 -182,96 -39,19 -85,37 -127,50l-80 24c-73,21 -149,36 -233,46 -83,11 -166,17 -261,17 -49,0 -85,6 -133,1 -20,-3 -48,-1 -69,-1 -10,0 -25,-1 -35,0l-24 10c17,0 18,3 31,4 50,4 117,5 164,10l132 4c26,0 36,-4 62,-4 219,2 467,-58 654,-167 100,-58 193,-121 283,-193 8,-7 11,-9 19,-16 7,-6 10,-7 17,-14l127 -113c21,-18 66,-75 86,-81 -9,17 -124,126 -142,140 -26,21 -48,42 -74,64 -102,86 -212,166 -330,227 -46,25 -95,49 -145,67 -17,6 -33,12 -52,18 -37,12 -68,22 -107,32 -40,9 -75,16 -116,23 -106,18 -299,33 -396,19l-227 -15c-11,0 -15,5 -28,6l0 7c52,0 130,16 188,21 18,2 40,6 59,7 103,3 228,17 332,2 154,-22 235,-38 379,-98 63,-26 122,-61 179,-96 41,-24 83,-55 122,-84l114 -91c7,-6 10,-11 18,-16 43,-35 83,-74 123,-114 17,-17 51,-55 69,-67 -4,15 -24,29 -34,39 -13,13 -23,23 -35,35l-187 168c-123,98 -248,179 -394,243 -32,14 -71,28 -105,37 -37,10 -72,21 -113,29 -105,21 -215,26 -329,27 -27,0 -43,-4 -66,-4 -43,0 -88,-7 -129,-10 -42,-4 -84,-10 -127,-15 -27,-4 -95,-23 -113,1 19,0 43,7 60,10 100,20 199,33 301,46l98 6c16,1 15,3 32,4 45,1 89,1 133,-6 142,-20 181,-18 337,-81 214,-86 354,-212 515,-354 6,-6 11,-11 17,-17 18,-18 90,-97 107,-102 -13,19 -122,127 -144,144l-76 67c-48,47 -105,87 -160,125l-44 29c-139,92 -290,155 -460,184 -119,20 -271,20 -401,2l-245 -39c-21,-5 -40,-8 -62,-12 -34,-7 -22,-3 -53,4l29 9c158,39 316,80 479,89 15,0 14,3 31,3 23,1 47,0 70,0l68 -4c19,-3 41,-5 63,-8 236,-34 438,-152 618,-303 7,-7 11,-10 19,-16l73 -66c40,-36 133,-138 160,-156 -4,16 -128,134 -143,149 -13,13 -24,21 -38,35l-39 34c-93,78 -191,156 -300,211 -364,185 -642,143 -1024,48 -19,-5 -38,-10 -58,-15 -33,-9 -22,-3 -53,4l7 3c0,0 7,3 8,3l151 47c449,143 794,103 1160,-188l61 -50c8,-7 10,-10 18,-17 15,-11 24,-23 38,-34 35,-27 109,-107 146,-144 10,-11 22,-30 35,-34 -5,21 -55,58 -71,79 -22,29 -50,48 -76,73 -49,50 -101,94 -157,138 -335,263 -664,324 -1082,203 -20,-6 -40,-10 -58,-16 -18,-6 -183,-61 -199,-57 -10,2 -18,5 -23,12 15,1 42,13 57,19 129,49 252,95 389,123 354,73 621,-29 886,-236l61 -51c9,-7 10,-8 18,-16 9,-9 12,-10 21,-18l164 -163c13,-13 21,-28 35,-38 -7,27 -36,43 -53,62l-92 96c-14,14 -26,22 -40,36 -14,15 -25,23 -40,37 -66,64 -184,146 -262,190 -33,19 -63,33 -99,50 -94,46 -196,67 -301,78 -12,2 -25,0 -37,1 -11,2 -16,3 -32,4 -169,1 -343,-50 -497,-105l-110 -40c-20,-7 -36,-13 -55,-21 -37,-15 -24,-4 -58,-2 10,14 36,19 51,26 118,57 254,108 380,145 261,77 498,41 730,-88 63,-35 122,-76 177,-122 55,-44 190,-160 233,-216 12,-16 23,-25 37,-39 12,-13 19,-31 37,-36l-37 43c-15,14 -22,25 -37,40 -116,114 -232,231 -373,315 -18,10 -31,17 -49,28 -62,37 -140,68 -216,90 -223,62 -446,23 -648,-57 -37,-15 -72,-28 -109,-44l-161 -69c-11,-5 -14,-9 -29,-9 -11,1 -22,3 -28,11l259 124c175,76 363,141 559,117 50,-7 82,-13 126,-24 41,-10 79,-25 114,-39 103,-41 200,-104 285,-174 8,-7 13,-11 21,-18l101 -90c38,-37 80,-75 115,-114 19,-22 51,-64 72,-78 -3,13 -9,14 -18,24 -29,36 -122,138 -152,161 -36,29 -66,63 -102,92l-231 159c-74,38 -135,66 -225,88 -231,58 -438,0 -648,-90l-107 -50c-38,-16 -69,-33 -105,-51 -107,-54 -55,-31 -109,-30 12,16 180,104 199,113l104 54c387,194 703,160 1048,-110l126 -110c40,-39 118,-117 151,-159 9,-11 24,-35 38,-39 -3,13 -10,14 -18,24l-134 144 -169 151c-46,34 -92,70 -142,99 -17,9 -34,18 -51,28 -18,11 -34,16 -54,26 -19,10 -36,16 -57,24 -231,93 -474,46 -662,-37 -108,-47 -214,-104 -316,-163 -14,-8 -64,-42 -78,-40 0,0 -16,5 -16,5 -11,4 -3,-3 -11,7 10,3 343,222 517,280 134,44 272,61 415,32 42,-8 85,-20 124,-36 125,-50 244,-120 343,-212 9,-9 14,-10 23,-19 9,-9 10,-11 20,-18 38,-30 139,-138 177,-182l36 -41c9,-10 6,-11 18,-19 -4,16 -6,14 -16,25 -46,49 -88,102 -136,149l-106 100c-45,41 -112,92 -162,122l-52 32c-90,54 -181,91 -294,110 -212,35 -391,-27 -533,-98l-310 -180c-73,-47 -61,-49 -109,-38l12 9c5,4 8,5 12,9l72 50c116,77 229,158 355,219 145,69 301,107 468,79 183,-31 322,-116 442,-211l47 -37c14,-14 27,-24 41,-39l44 -40c55,-54 128,-129 175,-190 8,-10 9,-12 19,-19 -7,27 -45,42 -52,69l17 -14c-2,10 -11,20 -18,27 -7,8 -14,17 -20,26l7 0c-3,12 -11,16 -19,26 -8,10 -12,15 -19,26l0 8c-1,7 -7,11 -13,18 -9,11 -12,13 -19,26 5,9 -10,22 -14,27 -8,11 -14,17 -20,29 3,5 2,-2 0,5 -2,17 -24,26 -29,41l-1 7c-3,14 -16,24 -24,35 -15,20 2,8 -34,54 -6,8 -6,15 -11,24 -9,19 -20,23 -30,48 -3,9 -19,27 -25,36l-42 73c-5,10 -19,25 -26,36 -5,10 -4,12 -10,22 -26,44 -62,84 -92,126 -35,47 -77,88 -116,132 -39,44 -84,82 -128,121l-70 53c-75,51 -159,97 -251,120 -122,30 -216,26 -327,-7 -120,-35 -215,-112 -300,-197l-116 -130c-137,-167 -247,-356 -366,-535l-37 -54c-22,2 -47,8 -69,11 -168,23 -336,43 -505,52l-75 5c-25,3 -52,-1 -77,3 -64,8 -166,2 -238,2 -29,0 -45,4 -76,4 -94,-1 -207,2 -301,15l-142 18c-91,13 -182,30 -267,50 -42,10 -89,19 -129,31l-125 34c-43,12 -82,25 -125,36 -60,15 -117,40 -177,59l-631 246c-38,15 -73,32 -111,48 -197,82 -395,207 -615,117 -69,-28 -90,-49 -147,-93 -42,-33 -161,-190 -162,-235 3,4 0,0 4,6 1,1 1,2 2,3 0,0 1,1 1,2l39 72c32,54 71,99 115,143l53 44c8,5 10,8 18,13 108,68 244,84 368,53 10,-2 15,-4 25,-7 3,-1 9,-2 13,-4 1,0 4,-2 4,-2l5 -3c-53,0 -86,24 -189,8 -159,-23 -279,-121 -367,-252 -10,-15 -17,-27 -26,-43l-48 -91c-6,-16 -17,-28 -17,-49 0,0 1,1 1,2l11 23c5,12 7,17 12,27 68,133 63,118 146,223 13,16 24,21 38,35 56,56 161,108 249,120 43,6 93,6 136,0 22,-4 44,-8 62,-12l55 -18 -69 11c-142,20 -307,-35 -407,-134 -60,-59 -93,-98 -139,-175 -18,-32 -94,-178 -95,-217 0,1 1,2 1,2 1,1 1,2 2,2l11 28c32,90 102,224 164,294 142,159 309,237 534,181l64 -20c-15,0 -24,4 -38,7 -112,23 -241,8 -339,-44 -11,-6 -17,-10 -29,-17 -73,-38 -159,-125 -206,-194 -13,-19 -23,-37 -35,-55 -27,-39 -71,-138 -87,-178 -8,-21 -17,-45 -24,-66 -7,-21 -18,-43 -18,-69 0,1 1,2 1,2l49 136c24,60 32,73 59,129 45,91 126,194 210,255 144,106 323,135 495,76l14 -7c-41,1 -92,25 -184,18 -252,-20 -456,-227 -547,-452 -28,-69 -97,-235 -97,-299l12 40c4,14 7,26 11,41l52 153c5,14 10,24 15,37 5,13 9,21 15,33l35 70c66,129 172,248 303,313 81,41 147,57 249,57 35,0 133,-8 165,-27 4,-2 3,-2 6,-4 -15,1 -32,5 -49,7 -112,16 -225,-3 -321,-51 -77,-39 -135,-83 -193,-142 -20,-19 -33,-36 -50,-57l-47 -65c-15,-24 -28,-44 -41,-70 -7,-15 -13,-23 -19,-36 -57,-117 -99,-242 -127,-371 -7,-31 -16,-55 -16,-92l3 0c0,23 13,73 19,96 51,201 118,408 257,564 6,7 6,9 12,16 9,10 18,18 28,28 39,38 80,70 128,98 76,45 165,82 255,82 40,0 72,-1 108,-5 14,-1 31,-5 47,-8 17,-3 28,-5 40,-15 -17,0 -38,6 -55,7 -11,0 -20,-1 -31,1 -26,3 -60,0 -87,-2 -16,-1 -35,-5 -51,-8 -179,-36 -332,-160 -432,-309l-69 -118c-61,-113 -113,-286 -139,-415 -7,-36 -13,-65 -20,-102 -5,-35 -13,-66 -13,-108l3 0c0,50 26,169 37,217 16,70 33,135 53,197 21,61 43,124 70,181 37,75 79,148 132,212 6,7 10,10 15,17 28,34 60,66 95,92 14,10 23,18 36,27 12,9 25,16 38,24 8,5 12,7 21,11 35,19 69,36 107,49 34,11 61,19 100,25 38,6 197,14 222,-19 -22,0 -37,3 -63,3 -22,0 -44,0 -66,0 -116,1 -283,-76 -370,-152 -21,-19 -49,-39 -67,-61 -42,-50 -77,-92 -113,-148 -130,-200 -204,-501 -232,-748 -2,-19 -6,-39 -8,-56l7 0c0,41 9,80 15,121 45,305 135,625 353,843 93,93 212,160 342,187 31,7 207,25 233,-10 -38,0 -93,3 -128,-1 -223,-23 -423,-173 -543,-354l-71 -124c-85,-168 -129,-356 -160,-543 -3,-20 -10,-96 -16,-108 9,3 4,-1 7,9 0,1 3,15 3,15 17,138 47,273 85,405 10,35 22,67 34,99 22,60 50,125 84,180l24 42c24,39 51,79 82,113 20,23 41,48 64,68 76,63 150,113 243,150 31,13 64,25 100,32 35,7 199,31 227,-7 -43,0 -88,1 -126,-4 -36,-4 -71,-12 -103,-22 -62,-20 -122,-45 -174,-76 -28,-17 -52,-33 -77,-51 -13,-10 -23,-19 -35,-28 -39,-30 -51,-49 -79,-78 -6,-6 -10,-9 -15,-16 -103,-128 -166,-249 -219,-410 -32,-93 -58,-200 -75,-301 -6,-35 -15,-73 -15,-110 10,15 8,36 11,54 27,157 71,363 141,506 48,97 99,199 177,276 22,21 42,43 64,64 34,31 74,58 113,82 15,9 25,14 41,22l23 12c102,46 222,91 339,74 31,-4 24,-2 43,-19 -44,0 -80,1 -120,-5 -211,-30 -414,-166 -537,-332 -74,-98 -131,-210 -170,-327 -40,-121 -71,-247 -93,-374l2 -23c16,69 23,135 43,212 16,64 35,137 58,195 35,89 73,179 125,258 34,50 69,98 113,141 11,12 20,21 31,32 96,96 235,168 369,201 36,9 72,11 109,16 17,2 38,3 60,3 19,0 32,-7 42,-21 -150,0 -260,-40 -383,-104 -38,-20 -77,-47 -112,-73 -12,-9 -20,-16 -32,-26l-120 -124c-91,-116 -157,-257 -206,-403 -16,-49 -69,-244 -69,-296 11,8 6,5 9,23 38,233 125,501 281,685 57,68 123,131 199,177 54,33 107,61 166,84 32,12 60,21 94,31 49,14 116,24 166,23 19,-1 29,-7 38,-21 -184,0 -379,-93 -518,-203 -44,-35 -82,-74 -119,-117 -38,-43 -68,-92 -100,-140 -7,-12 -15,-27 -22,-40 -22,-40 -39,-78 -57,-121 -27,-68 -98,-285 -106,-371l7 0c0,25 15,83 21,105 36,154 90,303 171,438 33,56 75,109 117,157 24,28 52,54 81,76l105 76c13,8 25,15 40,22l124 57c93,38 151,45 250,56 18,2 29,-7 37,-20 -69,0 -134,-18 -197,-39 -111,-38 -218,-86 -309,-160 -43,-35 -85,-70 -121,-113 -81,-97 -131,-170 -183,-286 -51,-115 -82,-235 -111,-358l7 0c0,26 14,73 21,100 8,29 17,63 27,92 10,30 20,62 31,90 34,83 70,165 120,239 65,97 138,176 232,247 113,85 287,157 422,176 25,4 83,19 93,-16 -64,0 -142,-23 -193,-40 -120,-39 -224,-94 -323,-168 -5,-4 -10,-7 -15,-12l-61 -53c-109,-110 -191,-238 -248,-382 -7,-16 -12,-26 -17,-42l-41 -130c-7,-22 -15,-73 -24,-91 9,4 9,11 11,20l46 160c20,61 42,115 68,168 50,100 114,200 194,279 50,49 106,93 165,131 13,8 23,15 37,22 27,15 49,27 78,40 57,24 112,47 172,65 32,9 62,17 95,23 58,9 56,16 90,-14 -60,-1 -127,-24 -183,-43 -148,-50 -245,-100 -370,-197 -143,-111 -262,-304 -318,-471 -18,-51 -35,-99 -48,-151 -4,-19 -2,-16 1,-21 31,131 82,257 147,374l69 105c37,49 78,98 126,136l31 27c7,6 7,7 15,13 116,87 242,149 383,191 31,9 60,16 92,23 31,6 67,15 87,-14 -23,0 -72,-12 -93,-18 -190,-52 -331,-118 -482,-239 -90,-73 -164,-171 -222,-272 -31,-55 -124,-255 -125,-316 11,8 5,2 10,18 2,10 3,13 5,22 5,16 9,27 14,42 28,83 61,158 102,232 33,60 74,111 115,164 24,31 52,56 80,83 74,68 176,139 268,177 26,10 49,22 79,33 28,10 55,19 82,29 47,15 122,37 177,42 9,-14 17,-15 25,-25 -54,0 -125,-29 -176,-43 -26,-8 -55,-18 -80,-28 -27,-11 -51,-20 -76,-32 -122,-58 -229,-128 -323,-223 -54,-54 -102,-117 -141,-182 -33,-54 -128,-243 -130,-302l62 158c31,75 71,144 118,209 9,12 14,20 23,32 40,49 82,98 131,137 87,70 165,120 267,168 88,41 188,73 284,95 16,3 30,5 44,8 7,-5 24,-18 28,-24 -41,-1 -128,-30 -169,-43 -56,-19 -103,-38 -154,-59l-73 -34c-99,-58 -200,-117 -275,-203 -8,-9 -17,-17 -26,-26 -34,-34 -66,-78 -93,-119 -31,-47 -130,-227 -135,-289 9,7 6,5 10,18l22 61c31,76 68,147 113,214 8,12 14,21 23,33 46,63 101,121 160,171 91,77 197,135 307,183 40,17 80,32 123,44 41,11 83,26 125,35 34,7 51,19 73,-14 -41,-4 -127,-32 -165,-44 -162,-55 -311,-122 -444,-230 -6,-5 -8,-9 -14,-14l-66 -63c-9,-9 -17,-16 -27,-26 -24,-25 -48,-55 -68,-84 -49,-72 -123,-194 -141,-273 10,7 13,21 18,34 33,83 75,166 129,237 29,39 61,77 96,112 109,109 227,187 374,248 101,43 200,73 316,100l23 -25c-79,-19 -161,-40 -236,-70 -24,-9 -50,-17 -73,-28 -95,-42 -181,-84 -260,-143 -21,-15 -40,-28 -59,-45 -35,-31 -75,-61 -104,-98l-46 -55c-35,-42 -132,-194 -147,-257l7 0c3,39 78,162 105,201 14,21 28,38 43,58 16,21 33,36 47,54 25,33 71,71 104,98 10,9 19,14 29,23 46,38 102,72 156,98 13,7 20,12 33,19 130,66 265,107 412,141 6,-9 12,-17 24,-20 -7,-10 -25,-11 -38,-14 -114,-29 -226,-63 -333,-113 -12,-5 -21,-11 -32,-16l-98 -52c-70,-42 -142,-88 -200,-147l-49 -49c-36,-35 -174,-220 -175,-270 16,18 25,47 36,68 12,22 25,43 38,63 14,22 26,40 41,60 29,39 62,74 96,109l53 48c162,131 337,211 540,270 173,51 112,26 153,15l0 -7c-19,-1 -61,-13 -79,-19l-150 -45c-209,-69 -383,-169 -541,-325 -40,-39 -152,-183 -156,-227l11 14c35,61 61,105 107,161l43 50c36,43 114,101 158,134l87 56 162 82c24,10 42,17 67,26 22,9 276,95 298,89 5,-3 24,-20 27,-24 -12,-1 -26,-5 -40,-8 -87,-19 -169,-48 -253,-78 -24,-8 -44,-17 -67,-26 -66,-26 -129,-61 -189,-93 -58,-32 -117,-72 -166,-116l-50 -44c-34,-26 -104,-115 -129,-153 -10,-15 -33,-42 -34,-59 9,6 66,97 79,112 71,86 154,160 248,222 56,37 119,70 182,99l133 55c94,33 188,62 290,86 5,-4 24,-21 28,-25l-253 -71c-13,-4 -21,-8 -33,-12 -132,-44 -255,-104 -369,-180 -45,-31 -92,-65 -131,-103 -8,-8 -14,-14 -22,-23 -16,-15 -31,-29 -44,-46 -21,-26 -70,-74 -77,-104 10,7 14,17 22,27 33,44 67,85 106,123l47 44c34,29 67,53 105,79 156,103 332,175 512,225l144 38c9,-14 17,-15 24,-25 -20,-9 -115,-29 -143,-37 -218,-61 -434,-146 -610,-284 -21,-17 -165,-141 -176,-179 10,3 5,0 13,11 35,44 80,95 124,130 19,14 32,26 51,40 149,112 313,184 493,244 70,24 144,43 217,61 26,7 43,13 62,-13 -12,-7 -51,-14 -69,-19 -197,-49 -391,-114 -568,-213 -77,-44 -255,-163 -291,-231 14,4 12,10 23,22 8,8 14,14 23,22 45,45 95,85 148,120 45,30 121,79 171,100 22,9 39,19 59,28 147,59 243,98 401,138 158,39 91,20 135,8l0 -7c-21,0 -52,-10 -72,-15 -66,-17 -133,-34 -196,-55 -21,-7 -44,-13 -65,-21 -22,-9 -40,-14 -63,-21 -120,-41 -234,-97 -343,-161 -46,-28 -164,-108 -190,-148 16,5 55,45 71,58 40,32 80,60 125,87l138 75c9,4 18,7 29,12 58,28 118,53 180,74 108,36 214,69 324,96 106,27 52,9 93,-2l0 -7c-20,0 -50,-9 -69,-14 -108,-27 -211,-56 -316,-91 -119,-40 -237,-86 -344,-146 -29,-16 -189,-104 -196,-131 36,19 63,47 98,68 19,11 32,21 52,32 18,10 33,20 51,29 224,110 421,174 665,235 20,5 46,13 66,15 8,-2 22,-16 24,-24 -31,0 -98,-22 -131,-30 -163,-41 -325,-91 -483,-153 -40,-17 -286,-124 -311,-162 14,4 21,14 35,18 -5,-12 -3,-3 0,-7l98 33c34,12 63,22 96,33l245 79c73,20 480,130 514,129 16,0 53,-38 73,-55l322 -256c14,-10 24,-18 38,-27l77 -52c15,-9 25,-17 40,-26 99,-64 234,-132 343,-172 174,-62 378,-88 556,-44 35,9 67,17 100,29 17,7 32,11 48,18 377,160 808,352 1224,387 540,45 838,-134 1297,-361l246 -140c8,-5 14,-8 22,-13l292 -188c27,-17 51,-35 76,-53 13,-9 26,-18 39,-27 57,-39 135,-103 184,-136zm-6017 1906l7 -4 -7 4zm14 -7l1 1c0,0 -2,-1 -1,-1zm48 -21c0,1 -1,1 -2,2 0,1 -1,1 -2,1 -5,1 -5,1 -9,1 0,-1 1,-3 2,-2 0,1 1,-1 2,-1 5,-1 4,-1 9,-1zm0 0l7 -4 -7 4zm14 -7l1 1c0,0 -1,0 -1,-1zm39 -17c4,-4 -8,-4 10,-4 -4,4 4,3 -10,4zm14 -7l1 1c-1,0 -2,-1 -1,-1zm38 -18l7 -4 -7 4zm52 -24l1 1c0,0 -1,-1 -1,-1zm-14 0l1 1c0,0 -1,-1 -1,-1zm21 -3l1 1c0,0 -1,-1 -1,-1zm21 -14l1 1c0,0 -2,-1 -1,-1zm14 -4l-7 4 7 -4zm0 0l0 0zm21 -7l1 1c0,0 -2,0 -1,-1zm6 -3l2 1c-1,0 -2,-1 -2,-1zm7 -11c-3,3 0,2 -8,6 -6,4 -5,3 -12,5 6,-9 7,-10 20,-11zm21 -3l-6 4 6 -4zm-21 3l0 0zm21 -3l7 -4 -7 4zm-17 -7l1 1c0,0 -1,-1 -1,-1zm49 -4l1 1c0,0 -2,0 -1,-1zm-18 -3l1 1c0,0 -1,-1 -1,-1zm-3 -4c-6,9 -7,10 -21,11 7,-11 4,-10 21,-11zm-28 4l7 -4 -7 4zm52 -7c-3,4 3,2 -5,5 -16,4 -4,1 -9,-2l14 -3zm-24 3l7 -4 -7 4zm48 -6l-6 4 6 -4zm-24 3l7 -4 -7 4zm24 -3l7 -4 -7 4zm-41 -4l0 0zm69 -7l1 1c0,0 -1,-1 -1,-1zm-69 7c6,-9 15,-14 31,-14 -10,9 -13,14 -31,14zm28 -3c9,-9 14,-13 31,-14 -9,7 -19,13 -31,14zm66 -18l1 1c0,0 -2,0 -1,-1zm-32 11c6,-9 7,-10 21,-11 -3,3 -1,2 -8,6 -7,4 -5,3 -13,5zm46 -14l-7 4 7 -4zm0 0l0 0zm20 -7l1 1c0,0 -1,-1 -1,-1zm-104 14c13,-18 23,-18 35,-18 -10,15 -16,13 -35,18zm104 -21l-6 4 6 -4zm-69 14c10,-9 13,-14 31,-14 -10,9 -13,13 -31,14zm31 -4c7,-9 13,-13 28,-14 -11,10 -11,10 -28,14zm38 -10c3,-4 -3,-3 6,-5 16,-5 3,-2 8,1l-14 4zm39 -11l-7 4 7 -4zm-21 0l1 1c0,0 -2,0 -1,-1zm4535 -3l-3 3 3 -3zm-4514 3l6 -4 -6 4zm-18 -7l1 1c0,0 -1,0 -1,-1zm4532 4c2,-10 0,-5 7,-11 -2,10 1,6 -7,11zm-4591 7c7,-10 14,-14 31,-14 -10,9 -13,13 -31,14zm-35 3c13,-11 15,-17 39,-17 -3,3 -11,11 -15,13 -11,6 -8,4 -24,4zm66 -7c7,-8 13,-13 28,-14 -6,9 -14,13 -28,14zm4571 -17l-4 3 4 -3zm-4536 10c6,-8 7,-9 21,-10 -6,8 -7,9 -21,10zm4539 -14l-3 4 3 -4zm-4469 -3l-7 4 7 -4zm-38 10c3,-2 0,-2 8,-5 6,-4 5,-3 12,-5 -6,8 -7,9 -20,10zm4507 -7c2,-9 -1,-5 7,-10 -2,10 0,5 -7,10zm-4469 -3l7 -4 -7 4zm-38 -3l-7 4 7 -4zm48 -4l1 1c0,0 -1,-1 -1,-1zm4469 -3l-3 3 3 -3zm-4448 0c0,-1 1,0 1,1l0 0c0,0 -1,-1 -1,-1zm-76 0c-7,9 -16,13 -32,13 11,-9 11,-13 32,-13zm-63 17c3,-4 11,-11 15,-13 10,-7 8,-4 23,-4 -13,11 -14,17 -38,17zm-31 3c9,-14 17,-20 41,-20 -17,15 -15,14 -41,20zm4622 -24l-4 4 4 -4zm-4521 11c6,-10 8,-11 24,-11 -9,8 -8,10 -24,11zm-7 -7l6 -4 -6 4zm4528 -4l0 0zm-4452 -3l-7 4 7 -4zm-17 0c-4,2 -6,5 -11,7 -6,3 -4,2 -14,3 9,-8 8,-10 25,-10zm0 0l6 -4 -6 4zm4476 -7l0 0zm-4435 0l1 1c0,0 -1,-1 -1,-1zm-24 7c3,-4 -3,-3 5,-5 16,-5 4,-2 9,1l-14 4zm4462 -11l-3 4 3 -4zm-4424 0l-6 4 6 -4zm-52 0l1 1c0,0 -1,0 -1,-1zm4476 0l0 0zm-4424 0l7 -4 -7 4zm-10 -7l-7 4 7 -4zm-104 18c8,-13 16,-18 38,-18 -10,9 -19,17 -38,18zm-32 0c15,-13 14,-18 42,-18 -13,12 -17,18 -42,18zm-35 3c16,-14 16,-21 46,-21 -4,5 -12,11 -17,15 -12,8 -11,6 -29,6zm213 -24l1 1c0,0 -2,-1 -1,-1zm-115 17c8,-10 20,-17 38,-17 -5,4 -9,8 -16,11 -7,4 -14,5 -22,6zm4518 -21l0 0zm-4417 0l1 1c0,0 -2,0 -1,-1zm-63 14c7,-10 14,-11 28,-14 -6,9 -14,13 -28,14zm4480 -14l0 0zm-7 -3l-4 3 4 -3zm-4438 10c7,-9 8,-7 21,-10 -6,8 -7,9 -21,10zm35 -7c8,-10 -3,-5 14,-7 -3,3 -1,3 -6,5 -8,4 -3,0 -8,2zm-39 -7l-6 4 6 -4zm4442 4c2,-10 -1,-5 7,-11 -3,10 0,6 -7,11zm-4365 -7l-7 4 7 -4zm0 0l7 -4 -7 4zm4375 -7l-3 3 3 -3zm-4392 0l1 1c0,0 -2,-1 -1,-1zm-98 17c9,-12 17,-17 38,-17 -5,4 -8,8 -16,11 -6,3 -16,5 -22,6zm-31 0c15,-13 14,-17 42,-17 -14,11 -18,17 -42,17zm-35 4c16,-14 16,-21 45,-21 -3,4 -11,11 -16,15 -12,7 -12,6 -29,6zm-31 0c3,-4 11,-12 16,-15 12,-9 10,-6 29,-6 -15,22 -30,21 -45,21zm4591 -25l-4 4 4 -4zm-4348 0l1 1c0,0 -1,0 -1,-1zm-108 14c9,-12 12,-14 32,-14 -10,9 -13,14 -32,14zm4459 -17l-3 3 3 -3zm-4427 14c6,-9 15,-14 31,-14 -3,3 1,0 -6,4 -9,6 -14,9 -25,10zm4431 -21l-4 7 4 -7zm-4355 3l-7 4 7 -4zm-41 11c9,-8 7,-10 24,-11 -3,3 -5,5 -10,8 -7,2 -4,2 -14,3zm-39 -11l0 0zm80 0l7 -4 -7 4zm4358 -7l-3 4 3 -4zm-4326 0l0 0zm-21 0l1 2c0,-1 -2,-1 -1,-2zm4351 -3l-4 3 4 -3zm-4330 3l6 -4 -6 4zm4330 -3l0 0zm-4442 10c12,-10 13,-13 35,-13 -8,10 -15,13 -35,13zm-35 4c14,-11 18,-17 42,-17 -15,13 -14,17 -42,17zm-34 3c14,-12 18,-20 45,-20 -9,13 -24,20 -45,20zm-32 0c16,-13 16,-20 46,-20 -15,21 -30,20 -46,20zm-27 -3c2,-4 21,-21 24,-21 9,0 10,2 17,4 -9,14 -17,17 -41,17zm163 -7c7,-9 16,-14 31,-14 -6,9 -15,14 -31,14zm4414 -17l0 0zm-4383 13c10,-8 13,-13 32,-13 -10,8 -14,12 -32,13zm4386 -17l-3 4 3 -4zm-10 0l-4 4 4 -4zm-4337 11c6,-9 7,-10 20,-11 -6,8 -7,9 -20,11zm4347 -11l0 0zm-4299 -3c-6,5 -4,4 -14,7 8,-11 -2,-6 14,-7zm0 0l7 -4 -7 4zm4289 3c3,-12 1,-8 10,-14 -3,12 -1,8 -10,14zm-4264 -10c3,-4 13,5 3,1 0,0 -9,4 -3,-1zm4285 -4l0 0zm-4275 0l1 1c0,0 -1,0 -1,-1zm-156 18c3,-5 8,-10 15,-13 10,-6 12,-5 26,-5 -13,12 -17,18 -41,18zm-35 3c14,-22 30,-21 45,-21 -15,13 -20,19 -45,21zm-32 0c11,-16 19,-21 46,-21 -5,6 -11,10 -17,14 -11,7 -11,7 -29,7zm-13 0c-10,0 -10,-2 -18,-3 31,-27 17,-18 42,-18 -3,5 -20,21 -24,21zm4511 -21l0 0zm-7 -3l-4 3 4 -3zm-4355 14c7,-10 14,-14 31,-14 -10,9 -13,13 -31,14zm-35 3c10,-14 20,-13 39,-17 -4,5 -9,9 -15,12 -10,6 -11,5 -24,5zm-163 4c13,-20 14,-21 45,-21 -15,22 -30,21 -45,21zm4556 -25l-3 4 3 -4zm-4295 0c-4,3 -7,6 -12,9 -5,2 -15,4 -20,5 7,-9 16,-13 32,-14zm-28 0l1 1c0,0 -1,0 -1,-1zm76 -3l-6 4 6 -4zm-48 3l6 -4 -6 4zm4295 0c2,-10 0,-5 7,-10 -2,10 1,5 -7,10zm-4292 7l13 -8c7,-4 9,-5 18,-6 -9,9 -14,13 -31,14zm45 -10c3,-4 -3,-3 6,-5 16,-5 4,-2 8,1l-14 4zm4257 -11l-3 4 3 -4zm-4222 0l1 1c0,0 -1,0 -1,-1zm-17 0l1 1c0,0 -2,0 -1,-1zm4243 -3l-4 3 4 -3zm-4219 0l1 1c0,0 -1,-1 -1,-1zm-156 17c3,-5 9,-9 15,-13 10,-5 12,-4 26,-4 -4,4 -1,2 -8,6 0,0 -8,5 -8,5 -9,5 -13,6 -25,6zm-32 0c3,-3 11,-11 15,-13 11,-7 11,-4 27,-4 -13,11 -17,17 -42,17zm-38 4c3,-4 14,-14 19,-16 11,-7 14,-5 30,-5 -16,13 -20,21 -49,21zm-28 -4c10,-14 18,-17 42,-17 -4,7 -9,10 -17,15 -12,7 -11,5 -25,2zm4473 -17l0 0zm-4212 -4c4,-3 13,6 4,2 0,0 -10,4 -4,-2zm-63 0c-8,12 -15,11 -31,14 7,-10 14,-14 31,-14zm-66 18c8,-11 21,-16 39,-18 -8,11 -20,17 -39,18zm-167 3c3,-4 12,-11 17,-15 12,-9 10,-6 29,-6 -12,18 -17,21 -46,21zm-10 0c-8,-2 -10,-3 -21,-3 3,-5 2,-3 7,-8 18,-17 21,-13 38,-13 -3,9 -14,18 -24,24zm330 -24l1 1c0,0 -1,-1 -1,-1zm-55 0c-6,8 -11,9 -25,10 7,-9 9,-10 25,-10zm-32 3l7 -4 -7 4zm4282 -7l0 0zm-4250 4l7 -4 -7 4zm4253 -7l-3 3 3 -3zm-4205 0l2 1c-1,0 -2,-1 -2,-1zm-34 10c6,-9 8,-10 24,-10 -5,4 -4,4 -11,7 -5,2 -8,2 -13,3zm4239 -10l0 0zm-4187 -4c-5,4 7,4 -11,4 5,-3 -3,-2 11,-4zm-63 0l1 1c0,0 -1,0 -1,-1zm63 0l7 -4 -7 4zm24 -7c4,-3 13,6 4,2 0,0 -10,4 -4,-2zm-122 14c12,-10 14,-14 35,-14 -7,10 -19,13 -35,14zm-34 4c3,-5 9,-10 15,-13 10,-6 12,-5 26,-5 -12,12 -21,16 -41,18zm-32 0c4,-5 9,-10 15,-13 11,-6 12,-5 27,-5 -12,17 -25,18 -42,18zm-38 3c4,-5 12,-11 19,-15 13,-8 11,-6 30,-6 -16,14 -20,21 -49,21zm-31 0c11,-16 18,-21 45,-21 -3,5 -11,12 -17,15 -11,8 -11,6 -28,6zm-31 -3c5,-8 16,-16 24,-21 8,2 8,3 17,3 -9,15 -17,18 -41,18zm4462 -21l0 0zm-4163 0l1 1c0,0 -2,-1 -1,-1zm-91 10c8,-10 11,-10 28,-10 -3,3 -5,5 -10,7 -7,3 -7,3 -18,3zm-240 11c3,-10 7,-14 16,-19 15,-9 9,-3 26,-2 -10,14 -18,21 -42,21zm4494 -21l0 0zm-7 -3l-4 3 4 -3zm-4215 10c9,-8 13,-10 27,-10 -8,7 -16,9 -27,10zm-289 10c-10,0 -10,-1 -18,-3 17,-14 16,-21 35,-21 24,0 -6,24 -17,24zm327 -17c9,-8 6,-7 21,-7 -6,4 5,0 -10,5 -8,2 -1,1 -11,2zm38 -10l1 1c0,0 -1,-1 -1,-1zm-14 0l1 1c0,0 -1,-1 -1,-1zm4153 7c3,-13 1,-8 10,-14 -3,12 -1,7 -10,14zm-4129 -11c4,-4 14,6 4,2 0,0 -9,4 -4,-2zm4146 -3c1,-1 1,0 1,1l-1 -1zm-4163 0l0 0zm4160 -4l-4 4 4 -4zm-4233 14c8,-10 17,-14 35,-14 -8,10 -17,14 -35,14zm-38 4c5,-5 1,-2 8,-6 19,-13 17,-12 37,-12l-19 13c-12,6 -10,5 -26,5zm-35 3c8,-11 25,-21 45,-21 -9,13 -23,21 -45,21zm-35 0c1,-1 2,-2 2,-2 0,1 2,-1 2,-1 22,-17 23,-18 45,-18 -16,22 -32,21 -49,21zm-31 0c15,-22 30,-21 45,-21 -15,22 -30,21 -45,21zm-35 0c5,-7 10,-13 18,-17 11,-6 15,-4 31,-4 -17,15 -18,21 -49,21zm4410 -24l-3 3 3 -3zm-4121 0l-7 4 7 -4zm-80 14c12,-11 13,-14 35,-14 -11,9 -21,13 -35,14zm-244 7c21,-18 15,-21 53,-21 -21,17 -16,21 -53,21zm282 -14c3,-3 6,-5 10,-8 7,-2 8,-3 18,-3 -11,10 -8,11 -28,11zm-313 10c7,-10 15,-11 24,-24 11,2 11,3 25,3 -16,24 -29,21 -49,21zm4476 -17c3,-10 0,-6 7,-11 -2,10 1,5 -7,11zm-4090 -7l1 1c0,0 -1,-1 -1,-1zm-31 7c2,-2 -3,-3 8,-5 18,-4 3,-3 9,1 -8,2 -8,3 -17,4zm-383 14c8,-31 33,-24 45,-21l-16 15c-12,8 -10,6 -29,6zm4515 -28l-4 3 4 -3zm-4094 7c7,-7 5,-6 17,-7 -7,6 -5,5 -17,7zm4097 -11l-3 4 3 -4zm-4059 0l1 1c0,0 -1,0 -1,-1zm-45 0l-7 4 7 -4zm-149 18c3,-5 8,-10 15,-13 10,-6 12,-5 26,-5 -7,11 -23,18 -41,18zm-35 0c3,-5 12,-12 17,-14 11,-5 13,-4 28,-4 -15,13 -18,18 -45,18zm-35 0c20,-28 41,-18 45,-18 -13,19 -29,18 -45,18zm4323 -18l0 0zm-4180 11c13,-12 13,-14 38,-14 -4,3 0,0 -6,4 -13,9 -18,10 -32,10zm-39 3c14,-11 27,-17 46,-17 -14,12 -20,17 -46,17zm-139 4c18,-25 33,-21 49,-21 -14,21 -31,21 -49,21zm-31 -4c8,-12 20,-21 35,-21 13,0 1,-1 10,4 -2,3 -14,13 -19,16 -10,6 -8,1 -26,1zm327 -21l-7 4 7 -4zm-84 14l15 -9c10,-5 11,-5 24,-5 -4,3 0,1 -6,5 -13,8 -18,9 -33,9zm-257 7c-13,0 -7,-2 -21,-3 21,-18 15,-21 38,-21 29,0 -17,24 -17,24zm4410 -24l0 0zm-4111 10c10,-8 14,-10 28,-10 -10,8 -14,10 -28,10zm4115 -14l-4 4 4 -4zm-4035 0l-7 4 7 -4zm-38 7c2,-2 -3,-3 8,-5 18,-3 3,-2 9,2 -8,2 -8,3 -17,3zm-393 14c4,-5 2,-4 8,-9 20,-19 16,-12 41,-12 -4,6 -3,5 -8,10 -25,23 -23,12 -41,11zm4466 -21l0 0zm-4035 0c5,-3 -7,-3 11,-3 -5,3 3,2 -11,3zm-462 18c7,-30 63,-34 34,-8 -12,11 -13,8 -34,8zm493 -25l1 1c0,0 -1,0 -1,-1zm-17 0l1 1c0,0 -1,0 -1,-1zm24 -3c4,-4 14,5 4,2 0,0 -9,4 -4,-2zm-160 14c14,-12 14,-14 39,-14 -14,12 -14,14 -39,14zm-38 3c4,-5 12,-11 17,-14 11,-5 13,-3 28,-3 -13,12 -19,17 -45,17zm-35 0c17,-15 14,-17 46,-17 -4,5 -12,11 -18,14 -10,5 -13,3 -28,3zm-34 0c13,-18 29,-17 45,-17 -14,18 -29,17 -45,17zm-35 0c19,-28 35,-19 45,-17 -14,18 -29,17 -45,17zm4309 -21l0 0zm-4128 14c8,-11 18,-14 38,-14 -4,3 0,1 -6,5 -13,8 -18,9 -32,9zm-199 7c-5,0 -31,3 -4,-14 13,-9 16,-7 36,-7 -6,5 -23,21 -32,21zm4327 -21l0 0zm-7 -3l-3 3 3 -3zm-4020 0c-9,7 -19,9 -32,10 12,-10 17,-10 32,-10zm-67 14l16 -9c6,-2 16,-4 23,-5 -13,11 -23,14 -39,14zm-285 7l20 -19c14,-9 6,-2 29,-2 -5,7 -2,4 -8,9 -18,15 -21,12 -41,12zm352 -21l6 -4 -6 4zm-67 -4l-6 4 6 -4zm-316 21c3,-11 24,-24 24,-24 12,0 14,3 25,3 -18,16 -16,21 -49,21zm393 -14c8,-7 16,-9 28,-10 -10,8 -14,10 -28,10zm-403 11c-12,0 -14,-3 -25,-4 7,-10 15,-10 25,-24 10,2 10,4 24,4 -3,11 -24,24 -24,24zm4413 -14c3,-12 1,-8 11,-14 -4,12 -2,8 -11,14zm-3968 -4c7,-6 5,-5 17,-6 -7,6 -5,5 -17,6zm-42 -6l-7 4 7 -4zm-438 17c-45,0 1,-26 9,-26 8,0 14,3 19,5 -4,4 -22,21 -28,21zm4462 -24l-3 3 3 -3zm-4028 0c-11,10 -25,12 -41,13 14,-12 24,-13 41,-13zm-73 13c14,-11 14,-13 39,-13 -9,11 -19,13 -39,13zm-38 4c4,-5 12,-12 17,-14 11,-5 13,-3 28,-3 -13,12 -19,17 -45,17zm-35 0c4,-5 12,-12 18,-14 10,-5 13,-3 28,-3 -15,13 -18,17 -46,17zm-24 3c-8,0 -4,-1 -14,-3 17,-14 18,-17 49,-17l-16 12c-6,3 -12,8 -19,8zm-49 -3c4,-5 12,-12 18,-14 10,-5 13,-3 28,-3 -11,15 -20,17 -46,17zm4250 -21l-3 4 3 -4zm-3954 0l1 1c0,0 -1,-1 -1,-1zm-73 11c4,-4 6,-6 13,-9 8,-3 8,-2 18,-2 -12,10 -16,11 -31,11zm-4 -7l0 0zm-257 17c19,-16 18,-21 52,-21 -2,4 -14,13 -18,16 -12,7 -17,5 -34,5zm-31 -4c10,-15 18,-20 45,-20 -2,5 0,9 -16,18 -14,8 -9,2 -29,2zm4323 -24l-4 7 4 -7zm-3993 14c10,-8 14,-10 28,-10 -9,8 -14,10 -28,10zm42 -10c6,-2 8,-3 11,-3l10 3c-6,1 -8,2 -11,2l-8 -1c0,-1 -1,-1 -2,-1zm-407 17c16,-24 29,-21 49,-21 -23,34 -38,21 -49,21zm4361 -24l-3 3 3 -3zm-3902 0c4,-4 13,5 4,1 0,0 -10,4 -4,-1zm-494 21c23,-34 37,-21 52,-21 -35,30 -20,21 -52,21zm4400 -25l-4 4 4 -4zm-3895 0l1 1c0,0 -2,0 -1,-1zm3898 -3l-3 3 3 -3zm-3867 0l1 1c0,0 -1,-1 -1,-1zm-216 14c16,-14 14,-14 42,-14 -4,3 -2,2 -8,6 -15,10 -18,8 -34,8zm-42 3c16,-14 20,-17 49,-17 -16,13 -20,17 -49,17zm-34 0c14,-19 31,-17 48,-17l-18 12c-13,7 -13,5 -30,5zm-258 7c-9,0 -9,-2 -17,-3 21,-32 30,-21 49,-21 -6,8 -19,24 -32,24zm4417 -24l0 0zm-3857 -4c4,-4 20,6 5,2 -1,0 -11,4 -5,-2zm-153 14c15,-13 25,-14 42,-14 -15,13 -25,14 -42,14zm-38 4c6,-5 10,-9 19,-13 7,-3 18,-5 26,-5 -8,12 -24,18 -45,18zm-150 3c27,-23 28,-21 53,-21 -15,22 -35,21 -53,21zm-31 -3c4,-7 11,-13 19,-17 10,-5 12,-1 30,-1 -17,15 -18,18 -49,18zm-222 3c-10,0 -10,-2 -18,-3 4,-7 21,-20 28,-25 8,2 10,4 21,4 -4,13 -15,24 -31,24zm577 -24l1 1c0,0 -1,-1 -1,-1zm-59 10c5,-5 11,-10 21,-10 19,1 3,-1 10,3 -10,3 -20,6 -31,7zm-38 4c2,-3 0,-2 8,-6l33 -8c-12,10 -25,14 -41,14zm-296 7c16,-24 34,-21 52,-21 -16,22 -35,21 -52,21zm4274 -25l0 0zm-3864 0l-7 4 7 -4zm-41 0l1 1c0,0 -2,0 -1,-1zm-404 21c22,-33 43,-21 52,-21 -17,23 -34,21 -52,21zm4313 -24l-4 3 4 -3zm-3843 0c3,-4 13,5 4,2 -1,0 -10,4 -4,-2zm-25 3c5,-3 -7,-3 11,-3 -5,3 4,2 -11,3zm-462 18c-33,0 5,-25 17,-25 9,0 10,2 17,4 -9,8 -17,21 -34,21zm4330 -21l0 0zm-3816 -4c-3,3 0,2 -7,4 -3,0 -7,0 -10,0l0 -4 17 0zm0 0c5,-3 -7,-3 11,-3 -4,3 4,2 -11,3zm-566 18c1,-3 18,-18 21,-20 13,-9 14,-1 34,-1 -37,32 -20,21 -55,21zm4368 -11c3,-11 5,-11 14,-17 -3,11 -5,11 -14,17zm-3847 -14l1 1c0,0 -1,0 -1,-1zm-87 14c15,-13 25,-14 42,-14 -11,10 -26,14 -42,14zm-34 0c4,-3 1,-2 8,-6 1,0 9,-4 9,-4 11,-5 12,-4 28,-4 -16,14 -27,14 -45,14zm-42 4l10 -7c0,0 11,-6 11,-7 13,-6 14,-4 31,-4l-22 13c-13,6 -13,5 -30,5zm-35 0c16,-14 20,-18 49,-18 -16,14 -20,18 -49,18zm-38 0c15,-14 20,-18 48,-18 -3,5 -11,12 -17,14 -11,5 -16,4 -31,4zm-39 0c19,-16 19,-18 53,-18 -18,16 -21,18 -53,18zm4146 -21l0 0zm-3864 0l1 1c0,0 -1,-1 -1,-1zm-52 14c12,-11 22,-14 38,-14l-15 9c-6,2 -16,4 -23,5zm-268 7c1,-1 2,-2 2,-2l20 -14c13,-7 17,-5 34,-5 -17,23 -38,21 -56,21zm-35 -4c30,-25 30,-22 53,-17 -19,16 -19,17 -53,17zm-180 7c-12,0 -14,-2 -25,-3 22,-33 43,-21 52,-21 -3,5 -24,24 -27,24zm4399 -24l0 0zm-7 -4l-3 4 3 -4zm-3846 11c9,-8 14,-10 27,-11 -8,8 -15,10 -27,11zm-400 7c28,-25 27,-23 52,-18 -35,31 -23,18 -52,18zm-181 3c-12,0 -14,-2 -25,-3l20 -19c16,-12 11,-3 33,-2l0 7c-18,5 -15,17 -28,17zm4431 -24l-4 3 4 -3zm-3805 3c14,-3 16,-3 35,-3l0 3c-17,0 -25,7 -35,0zm-73 -3l1 1c0,0 -2,-1 -1,-1zm132 -4c4,-3 13,6 4,2 0,0 -10,4 -4,-2zm-21 0l1 1c0,0 -1,0 -1,-1zm-69 0l1 1c0,0 -2,0 -1,-1zm-449 21c18,-25 35,-21 52,-21l-20 19c-15,10 -9,2 -32,2zm4285 -17c2,-10 -1,-5 7,-10 -3,9 0,5 -7,10zm-3732 -7l1 1c0,0 -1,-1 -1,-1zm-98 0l2 1c-1,0 -2,-1 -2,-1zm-486 21c8,-34 46,-21 48,-21 -4,7 -2,4 -8,9 -17,15 -21,12 -40,12zm493 -24c4,-4 14,5 4,1 0,0 -9,4 -4,-1zm-48 10c13,-12 18,-10 35,-10 -4,3 -7,5 -13,8 -9,3 -11,2 -22,2zm-42 3c15,-13 14,-13 42,-13 -15,12 -25,13 -42,13zm-42 4c10,-13 26,-17 49,-17 -16,14 -29,12 -49,17zm-38 0c10,-13 26,-17 49,-17 -10,13 -26,17 -49,17zm-38 0c13,-19 33,-17 48,-17 -4,5 -10,10 -17,13 -13,6 -14,4 -31,4zm-38 0c14,-20 28,-22 48,-17 -4,5 -11,10 -18,13 -12,6 -14,4 -30,4zm4079 -21l-3 4 3 -4zm-3822 10c3,-2 0,0 6,-3 13,-7 14,-7 29,-7 -13,9 -21,10 -35,10zm0 -10l1 1c0,0 -1,-1 -1,-1zm-292 17c13,-18 30,-17 52,-17 -1,1 -2,0 -2,2l-8 5c-19,13 -18,10 -42,10zm-251 4c23,-34 46,-21 52,-21 -22,34 -37,21 -52,21zm4369 -24l-4 3 4 -3zm-3711 0c-5,3 7,3 -11,3 4,-3 -4,-2 11,-3zm-73 10c13,-12 28,-10 45,-10 -11,9 -29,10 -45,10zm-373 10c16,-22 34,-20 53,-20 -5,7 -11,11 -19,16 -13,7 -16,4 -34,4zm4157 -20l0 0zm-3711 0c4,-4 -8,-4 10,-4 -4,3 4,2 -10,4zm-101 -4l1 1c0,0 -2,-1 -1,-1zm-383 21c17,-23 38,-21 56,-21 -17,23 -38,21 -56,21zm-181 3l-27 -4c1,-1 18,-17 21,-19 13,-9 14,-1 34,-1 -2,3 -26,25 -28,24zm703 -27c4,-4 13,5 4,1 0,0 -10,4 -4,-1zm-125 0l-7 4 7 -4zm-432 20c5,-6 22,-19 28,-24 13,3 12,4 28,4 -20,17 -18,20 -56,20zm4237 -24l0 0zm-3798 0l-7 4 7 -4zm-456 21c-9,0 -10,-2 -17,-3 16,-23 29,-23 52,-18 -6,8 -22,21 -35,21zm-188 0c3,-12 25,-24 25,-24l27 4 -19 18c-16,12 -11,2 -33,2zm4445 -24l-3 3 3 -3zm-3794 10c13,-11 18,-10 34,-10 -9,8 -18,10 -34,10zm-7 -7l6 -4 -6 4zm-59 11c4,-4 1,-2 8,-6 1,-1 9,-5 9,-5 11,-5 12,-3 28,-3 -16,14 -27,14 -45,14zm-39 0c5,-4 2,-2 8,-6 1,-1 9,-5 9,-5 12,-5 13,-3 28,-3 -16,14 -26,14 -45,14zm-41 3c13,-19 32,-17 48,-17 -15,12 -26,17 -48,17zm-35 0c4,-18 23,-17 45,-17 -14,12 -20,17 -45,17zm3979 -21l-4 4 4 -4zm-3656 0c4,-4 13,6 4,2 0,0 -10,4 -4,-2zm-42 4c11,-3 11,-4 25,-4 -1,1 -2,1 -2,2 -1,0 -12,9 -23,2zm-59 7c5,-4 -4,-1 9,-6 12,-4 31,-5 44,-5 -16,11 -34,11 -53,11zm-264 7c17,-16 21,-18 52,-18 -4,6 -13,12 -20,15 -11,4 -18,3 -32,3zm-38 0c3,-5 15,-15 21,-17 14,-7 10,-1 31,-1 -1,1 -2,1 -2,2l-8 5c-19,13 -18,11 -42,11zm-226 7c-13,-3 -12,-4 -28,-4l0 -7c15,-4 9,-8 21,-14 10,-6 17,0 31,0 -9,13 -14,10 -24,25zm4285 -25l0 0zm-3645 -3c4,-4 19,6 4,1 0,0 -10,5 -4,-1zm-452 17c29,-25 26,-17 52,-17 -18,24 -39,17 -52,17zm493 -21c4,-3 14,6 4,2 0,0 -9,4 -4,-2zm-511 21c-9,0 -9,-2 -17,-3 19,-27 36,-18 52,-18 -3,3 -4,4 -8,6 -6,5 -19,15 -27,15zm-233 0c23,-33 34,-21 52,-21 -23,34 -45,21 -52,21zm4355 -24l0 0zm-4153 21c-12,0 -14,-3 -25,-4 22,-30 44,-18 53,-17 -5,6 -6,6 -13,11 -3,1 -15,10 -15,10zm4156 -25l-3 4 3 -4zm-10 0l-4 4 4 -4zm-3760 0c-9,8 -13,10 -24,11 8,-8 12,-10 24,-11zm-449 18c3,-4 14,-14 19,-16 12,-8 17,-5 33,-5 -8,30 -52,21 -52,21zm-174 3c21,-31 26,-24 52,-20 -5,7 -10,13 -19,18 -17,11 -12,3 -33,2zm4393 -21l0 0zm-3572 -3c-5,3 7,3 -10,3 4,-3 -4,-2 10,-3zm-56 7c9,-6 17,-7 28,-7l-12 5c-8,2 -6,1 -16,2zm-45 3l16 -8c10,-3 11,-2 23,-2 -11,7 -23,10 -39,10zm-62 4c0,-1 2,-2 2,-2l9 -4c22,-11 28,-8 55,-8 -17,12 -46,14 -66,14zm-35 0c4,-4 1,-2 8,-6 3,-2 7,-4 9,-5 9,-3 16,-3 28,-3 -13,11 -27,14 -45,14zm0 -11l7 -4 -7 4zm-63 11c18,-15 30,-14 49,-14 -14,12 -28,14 -49,14zm-45 3c11,-14 27,-17 52,-17l-22 13c-13,6 -12,4 -30,4zm-35 -3c11,-15 24,-14 49,-14l-20 11c-10,4 -16,3 -29,3zm376 -18c4,-3 13,6 4,2 0,0 -10,4 -4,-2zm-35 4c7,-4 -8,-4 7,-3 8,0 3,0 7,3l-14 0zm-382 14c3,-6 13,-12 20,-15 10,-4 18,-3 32,-3 -11,15 -27,18 -52,18zm-42 0c13,-18 31,-22 52,-18 -14,20 -36,18 -52,18zm-233 3c-27,0 -29,1 -16,-11 23,-21 26,-11 44,-10 -4,6 -21,21 -28,21zm-198 -3c7,-10 15,-11 24,-25 7,4 19,5 28,7 -5,8 -13,17 -22,21 -10,5 -20,2 -30,-3zm4417 -11c3,-12 1,-8 10,-14 -3,12 -1,8 -10,14zm-4024 7l22 -16c15,-8 16,-2 33,-1 -19,16 -21,17 -55,17zm4044 -21l0 0zm-4079 18c21,-29 41,-18 52,-18 -17,23 -41,18 -52,18zm-223 3c2,-2 19,-18 22,-20 12,-8 14,-1 34,-1 -5,7 -4,6 -10,11 -22,20 -20,10 -46,10zm4302 -21l0 0zm-6 -3l-4 3 4 -3zm-3496 0c-5,3 7,3 -10,3 4,-3 -4,-2 10,-3zm-615 17c9,-14 23,-21 41,-21 14,0 2,-1 11,4 -21,28 -43,17 -52,17zm4114 -21l-3 4 3 -4zm-3461 0c4,-4 20,6 5,2 -1,0 -11,4 -5,-2zm-38 4c7,-4 -8,-4 7,-3 7,1 3,0 7,3l-14 0zm-49 3c9,-6 17,-7 28,-7 -9,7 -17,7 -28,7zm-48 4l16 -8c7,-2 15,-3 25,-3 -11,8 -24,11 -41,11zm-39 0c14,-12 24,-11 42,-11 -11,8 -25,11 -42,11zm-66 3c1,0 2,-2 2,-1 1,0 2,-1 2,-2 23,-13 36,-11 62,-11l-25 13c-13,3 -27,1 -41,1zm-38 0c17,-15 30,-14 49,-14l-21 11c-12,4 -12,3 -28,3zm-24 0c10,-9 21,-13 35,-14 -9,7 -22,13 -35,14zm-42 0c1,0 2,-2 2,-1 1,2 18,-21 40,-13 10,4 2,1 7,4 -24,5 -12,10 -49,10zm-529 7c3,-3 26,-25 28,-24l28 4 -22 20c-14,8 -13,0 -34,0zm491 -7l0 -7c25,-6 4,-10 52,-10l-22 13c-13,6 -13,4 -30,4zm-42 -3l21 -14c11,-5 16,-4 31,-4 -6,19 -36,18 -52,18zm-268 7c20,-29 39,-21 56,-21 -6,9 -21,22 -36,22 -6,0 -13,-1 -20,-1zm4153 -18c2,-10 -1,-5 7,-10 -2,10 0,5 -7,10zm-3920 11c3,-11 0,-6 9,-12 22,-15 18,-7 40,-6 -20,18 -29,18 -49,18zm-250 3c-23,0 -8,2 -18,-3 21,-30 41,-19 53,-18 -6,8 -22,21 -35,21zm-195 0c4,-15 24,-24 24,-24l28 4c-31,35 -35,21 -52,20zm957 -24c-7,4 7,4 -7,3 -8,-1 -4,-1 -7,-3l14 0zm-557 17l22 -16c15,-8 17,-1 34,-1 -19,16 -22,17 -56,17zm3975 -21l-3 4 3 -4zm-3338 0l1 2c0,-1 -2,-1 -1,-2zm-39 0c4,-3 13,6 4,2 0,0 -10,4 -4,-2zm-41 4c6,-4 -8,-4 7,-3 7,1 3,1 6,3l-13 0zm-56 3c1,0 2,-1 2,-1 1,1 2,-1 3,-1l26 -5c0,1 -2,1 -2,2 -2,5 -24,5 -29,5zm-52 4c0,-1 2,-2 2,-1l17 -8c14,-3 16,-2 22,2 -15,4 -21,7 -41,7zm-42 0l9 -5c14,-6 21,-6 36,-6l-19 9c-11,3 -14,2 -26,2zm-42 0c1,-1 2,-2 2,-1l17 -8c9,-2 17,-2 26,-2l-19 9c-10,3 -14,2 -26,2zm-59 0c20,-17 40,-16 63,-11l-5 3c0,0 -6,4 -6,4 -17,7 -31,4 -52,4zm-344 7c35,-31 37,-19 55,-18 -20,18 -19,18 -55,18zm-223 3l0 -7c12,-3 13,-10 24,-14 12,-6 14,0 32,0 -3,5 -17,16 -23,20 -12,7 -12,1 -33,1zm-177 -3c9,-13 14,-10 24,-24 10,2 18,4 28,6 -19,29 -27,24 -52,18zm4417 -21l-4 3 4 -3zm-3715 14c19,-16 32,-14 53,-14l-21 11c-12,4 -15,3 -32,3zm-340 3c20,-27 80,-28 40,-5 -15,8 -21,5 -40,5zm4055 -17l0 0zm-3311 -3c4,-5 20,5 4,1 0,0 -10,5 -4,-1zm-45 0l17 0 0 3 -17 0 0 -3zm-379 13c10,-9 20,-13 34,-13 -3,3 1,0 -6,4 -11,7 -16,9 -28,9zm-46 0c9,-7 24,-17 37,-15l15 5c-25,6 -4,10 -52,10zm-497 7c3,-4 17,-17 22,-20 13,-8 13,0 34,0l-22 20c-14,8 -13,0 -34,0zm880 -17c10,-7 19,-7 31,-7 0,1 -2,0 -2,1 -2,5 -24,6 -29,6zm-45 0c12,-8 19,-7 34,-7 -12,8 -19,7 -34,7zm-46 0c11,-7 23,-10 39,-10l0 7c-15,0 -19,3 -39,3zm-309 10c-13,0 -7,-2 -21,-3l4 -3c20,-14 28,-11 52,-11 -6,5 -28,17 -35,17zm-292 4c2,-9 9,-15 21,-21 14,-6 2,0 34,0l-9 8c-1,0 -12,8 -12,9 -12,6 -18,4 -34,4zm4097 -24l0 0zm-3186 0l1 1c0,0 -1,-1 -1,-1zm-38 3l-14 0c6,-4 -8,-4 7,-3 7,1 3,0 7,3zm-45 -3l0 0zm-272 10c1,0 2,-2 2,-1l17 -8c9,-2 20,-1 30,-1 -15,10 -31,10 -49,10zm-327 7c12,-16 31,-17 59,-17l-3 3c-24,15 -30,14 -56,14zm-243 3l-28 -4c30,-21 23,-24 56,-16 -3,3 -23,21 -28,20zm-209 0c21,-31 22,-20 56,-20 -3,4 -17,17 -22,20 -13,8 -14,0 -34,0zm4323 -24l-3 4 3 -4zm-2831 0l45 0 0 4 -45 0 0 -4zm-128 0l1 1c0,0 -2,-1 -1,-1zm-313 4c3,-3 0,-2 7,-4 3,0 7,0 10,0l0 4 -17 0zm-53 -4l25 0 0 4 -25 0 0 -4zm-254 11c14,-12 29,-11 46,-11 -3,3 0,2 -9,6 -12,6 -24,5 -37,5zm-66 0c18,-16 38,-14 56,-14 10,0 6,1 10,7 -42,10 -13,7 -66,7zm-264 6c18,-24 46,-17 56,-17 -11,15 -29,17 -56,17zm3913 -20l-4 3 4 -3zm-3002 3l-14 0c7,-4 -7,-4 7,-3 8,1 3,1 7,3zm-87 -3l18 0 0 3 -18 0 0 -3zm-62 0l17 0 0 3 -17 0 0 -3zm-39 0c-4,3 8,3 -10,3 4,-3 -4,-2 10,-3zm-187 7c12,-8 27,-7 41,-7 -12,7 -27,7 -41,7zm-578 10l12 -9c2,-1 13,-8 13,-8 16,-8 13,0 34,0 0,0 -1,0 -2,1l-21 14c-10,3 -23,2 -36,2zm-226 3c3,-9 12,-16 21,-21 11,-5 19,1 35,1 -3,4 -17,15 -23,19 -12,7 -12,1 -33,1zm-181 -3c21,-30 41,-18 53,-17 -5,7 -14,16 -22,20 -10,5 -20,2 -31,-3zm4362 -17l0 0zm-2953 -4c-1,1 -2,0 -2,1l2 -1zm-83 0c-1,1 -2,0 -3,1 0,1 -2,1 -2,1 -1,0 -2,1 -3,1l8 -3zm-376 11l0 -7c14,-2 19,-4 38,-4l-17 7c-8,2 -11,3 -21,4zm-271 3c17,-15 29,-14 48,-14 -10,14 -25,14 -48,14zm-32 0c11,-9 25,-14 39,-17 -6,14 -24,17 -39,17zm-278 4c12,-17 27,-21 45,-21 14,0 2,-1 11,3 -4,6 -14,12 -20,15 -11,4 -22,3 -36,3zm3975 -7c3,-12 5,-12 14,-18 -3,12 -5,12 -14,18zm-3443 -4c15,-10 31,-10 49,-10 -13,11 -30,10 -49,10zm-24 0c-8,0 -4,-1 -14,-3 13,-12 24,-11 42,-11l0 7c-13,1 -21,7 -28,7zm-268 4l4 -3c5,-4 2,-2 6,-4 2,-2 12,-7 14,-8 14,-5 14,1 32,1 -1,0 -2,0 -2,1 -4,12 -45,13 -54,13zm-466 7c23,-35 40,-21 56,-21 -23,34 -45,21 -56,21zm-150 3c-10,-2 -19,-6 -31,-7 9,-13 15,-10 24,-24 11,2 22,4 32,7 -7,10 -15,10 -25,24zm4376 -28l0 0zm-3798 14c4,-6 21,-17 31,-17 13,0 7,2 21,3 -26,22 -19,14 -52,14zm-237 7c3,-9 9,-15 22,-20 14,-7 2,-1 34,-1 -6,8 -13,12 -22,16 -13,7 -16,5 -34,5zm4038 -24l-3 3 3 -3zm-10 0l-4 3 4 -3zm-3548 14l21 -11c12,-4 15,-3 31,-3 -10,14 -27,14 -52,14zm-55 -4c5,-7 11,-11 26,-15 8,-2 25,1 40,1l0 7c-17,2 -11,5 -28,7 -11,1 -27,0 -38,0zm-230 4l14 -10c18,-11 23,-9 42,-4l-4 3c-32,21 -33,11 -52,11zm-209 7l-27 -5c23,-29 44,-17 55,-16 -4,6 -6,6 -13,11 -2,1 -14,10 -15,10zm-215 0c22,-34 45,-21 55,-21 -23,34 -39,21 -55,21zm4267 -21l0 0zm-7 -4l-3 4 3 -4zm-3648 11c15,-14 36,-23 56,-11 -11,3 -15,5 -24,8 -11,4 -19,3 -32,3zm-230 3l24 -15c10,-4 23,-2 35,-2 -19,27 -51,17 -59,17zm-233 -3c12,-3 13,-11 24,-15 10,-5 18,1 35,1 -3,3 1,-1 -5,4 -3,3 -3,3 -6,5 -5,3 -11,9 -14,10 -8,5 -7,4 -17,3 -18,-3 -9,2 -17,-8zm-184 7c3,-12 1,-5 9,-13 22,-20 23,-8 47,-8 -26,34 -43,21 -56,21zm4295 -18c3,-10 0,-5 7,-10 -2,10 1,5 -7,10zm-3672 7c4,-4 1,-1 8,-6 27,-16 24,-12 30,-4 -19,4 -14,10 -38,10zm-247 4c3,-4 0,-1 6,-5 40,-27 23,-13 56,-13 -3,3 0,1 -6,5 -3,2 -3,2 -6,4 -26,17 -17,9 -50,9zm205 -7c28,-25 46,-15 55,-14 0,0 -1,0 -2,1l-8 6c-24,14 -20,7 -45,7zm-244 3c17,-23 38,-21 56,-21 -2,9 -10,15 -20,19 -10,4 -23,2 -36,2zm-191 4c21,-32 41,-21 56,-21 -23,33 -45,21 -56,21zm-156 3c-15,-3 -21,-1 -28,-10 19,-6 11,-18 31,-18 12,0 13,3 24,4 -4,6 -21,20 -27,24zm4316 -28l-4 4 4 -4zm-3767 14c19,-16 22,-17 56,-17 -8,22 -46,17 -56,17zm-403 7l-28 -4 21 -20c12,-6 14,0 34,0l0 7c-14,4 -23,18 -27,17zm4173 -24l-3 3 3 -3zm-3982 21l-28 -4c23,-29 45,-18 59,-17l-31 21zm-404 -4c5,-6 22,-20 28,-24 10,2 19,5 28,7 -3,4 -17,17 -21,20 -14,8 -7,0 -35,-3zm4390 -21l-4 4 4 -4zm-3816 18c5,-7 17,-13 25,-17 15,-7 16,-1 38,-1l-4 3c-25,17 -30,15 -59,15zm-400 3l-27 -4c23,-33 43,-20 55,-20l0 7c-11,3 -4,0 -13,8 -2,1 -11,10 -15,9zm4219 -28l-3 7 3 -7zm-3836 21l-21 -3c19,-17 22,-18 56,-18 -5,12 -22,21 -35,21zm-219 4c3,-9 12,-16 21,-21 13,-7 17,0 38,0 -7,6 -14,13 -24,18 -11,7 -14,3 -35,3zm-42 -7c12,-17 43,-36 59,-14 -13,3 -15,10 -24,14 -11,5 -18,0 -35,0zm-184 0c4,-16 24,-25 24,-25l28 11c-16,4 -9,8 -21,14 -11,5 -17,0 -31,0zm4285 -21l-4 3 4 -3zm-3903 17c20,-26 44,-19 59,-17 -8,11 1,2 -11,9 -26,17 -19,8 -48,8zm3906 -21l-3 4 3 -4zm-4111 21c-17,0 -15,-3 -31,-3 3,-5 17,-16 23,-19 10,-6 19,-5 32,1 -2,5 -21,21 -24,21zm4115 -24l-4 3 4 -3zm-3927 21l-21 -4c21,-28 45,-17 59,-17 -6,8 -26,21 -38,21zm-404 -4c21,-30 29,-19 53,-17 -13,19 -26,30 -53,17zm4331 -17l0 0zm-3990 14c5,-7 17,-17 25,-21 8,-3 7,-3 18,-1 17,3 9,-3 16,8 -12,3 -15,9 -24,13 -13,7 -1,3 -15,2 -7,-1 -12,-1 -20,-1zm-163 3c-18,0 -16,-3 -31,-3 8,-13 14,-10 24,-24 9,2 24,3 31,6 -3,5 -21,21 -24,21zm3833 473c-8,29 -173,193 -186,205l-52 45c-17,15 -36,29 -55,42l-59 39c-81,54 -185,90 -284,105 -18,2 -71,8 -91,6 -78,-10 -84,-5 -163,-32 -64,-21 -138,-62 -189,-103l-103 -92c-9,-9 -16,-15 -24,-24 -57,-58 -171,-209 -214,-273l-271 -411c-3,-12 -1,-6 10,-8 8,-1 16,-3 25,-3 3,10 29,43 36,54l265 379c14,19 24,33 38,52 50,66 156,187 221,239 80,65 128,99 228,137 20,8 47,15 70,20 275,59 524,-98 708,-282 8,-8 14,-14 23,-22 14,-14 54,-64 67,-73zm-4052 -480c3,-4 23,-21 28,-24 9,2 18,5 27,7 -24,36 -31,18 -55,17zm4379 -20l0 0zm-286 434c-3,15 -50,66 -61,78l-45 49c-46,53 -119,114 -173,157 -9,8 -17,13 -26,19l-90 57c-186,102 -410,129 -599,19 -83,-48 -147,-100 -213,-166 -17,-17 -29,-31 -46,-48 -25,-25 -106,-129 -127,-158l-293 -417c-7,-10 -16,-17 -17,-31l35 -5 171 237c61,83 109,149 176,231 122,152 270,296 459,354 145,45 318,18 453,-49 81,-39 148,-91 216,-145 44,-35 179,-181 180,-182zm-3752 -417c26,-23 28,-25 59,-17 -22,29 -49,17 -59,17zm-164 3l-28 -4c15,-20 30,-29 56,-16 -3,3 -23,21 -28,20zm4205 -24l-3 4 3 -4zm-2821 73l0 -3c83,0 314,-26 397,-35l379 -52c2,9 6,12 10,21l-187 24c-30,5 -63,7 -96,12 -34,4 -64,5 -98,10l-144 13c-94,4 -161,10 -261,10zm2825 -76l-4 3 4 -3zm-4056 20c-18,0 -15,-2 -28,-3 22,-30 47,-18 59,-17 -3,5 -23,20 -31,20zm-219 -3l0 -7c16,-4 11,-11 23,-16 10,-4 18,2 33,2 -5,7 -13,16 -22,21 -14,7 -13,0 -34,0zm4257 -10c3,-12 5,-12 14,-18 -3,12 -5,12 -14,18zm-247 386c-3,11 0,4 -7,13 -4,4 -7,9 -11,13l-66 74c-18,23 -68,75 -91,93 -18,13 -31,28 -48,42 -88,73 -185,135 -295,172 -64,22 -85,23 -152,32 -156,20 -311,-49 -420,-131 -67,-50 -110,-94 -166,-155l-189 -231c-27,-36 -53,-71 -78,-107 -13,-18 -25,-35 -38,-52l-119 -163c20,0 21,-4 39,-4l229 299c51,65 95,113 139,168 7,9 14,14 22,23 9,9 10,13 19,22 8,9 14,15 23,23 75,75 156,144 252,193 278,142 563,36 779,-148l92 -85c14,-14 74,-83 86,-91zm-3829 -380c-23,0 -17,-2 -31,-3 26,-23 28,-25 59,-17 -4,5 -21,20 -28,20zm-191 0c-9,-2 -21,-3 -28,-6 21,-32 35,-18 55,-18 -4,7 -21,20 -27,24zm4285 -27l-4 3 4 -3zm-220 337c-3,11 0,4 -7,13 -4,5 -7,9 -11,14l-42 49c-105,113 -184,193 -319,275 -232,140 -480,138 -698,-7 -44,-30 -161,-125 -197,-172l-65 -71c-8,-10 -14,-16 -22,-26l-81 -100c-14,-18 -26,-33 -40,-51l-180 -234c-6,-9 -15,-19 -21,-27 12,0 30,-4 38,-7 8,14 9,12 18,24l59 73c13,16 25,31 39,48 7,8 12,14 19,23l264 306c73,72 127,119 214,175 9,6 18,12 28,17 180,97 373,110 563,26 99,-44 134,-70 218,-133 47,-34 167,-148 201,-192 8,-11 12,-16 22,-23zm-3919 -316c-12,0 -14,-3 -25,-4 25,-33 43,-19 59,-17 -9,8 -17,21 -34,21zm4142 -25l-3 4 3 -4zm-2049 0c16,0 19,-3 39,-3 4,17 6,4 10,21 -19,0 -20,3 -38,3 -3,-9 -6,-13 -11,-21zm-2274 25c-12,-3 -21,-7 -35,-7 7,-10 15,-11 24,-25 11,3 24,6 35,7l-24 25zm4146 246c-6,23 -146,169 -168,191 -10,9 -15,12 -25,21l-72 63c-197,157 -426,245 -680,159 -86,-29 -191,-97 -253,-154 -9,-9 -14,-11 -24,-21 -25,-25 -68,-61 -92,-89 -9,-11 -11,-14 -21,-24l-349 -420c10,-3 24,-6 35,-7l239 276c39,46 129,144 168,175l46 42c75,67 173,133 267,167 188,68 382,42 556,-59 71,-41 141,-90 200,-145 52,-49 81,-74 130,-130l43 -45zm-4000 -253c-18,0 -16,-4 -31,-4 29,-26 22,-26 59,-17 -4,5 -21,21 -28,21zm4177 -18c2,-10 -1,-5 7,-10 -2,10 0,5 -7,10zm-2007 -7c8,0 29,-4 35,-7 5,8 11,14 14,25 -19,0 -21,3 -38,3 -3,-9 -6,-13 -11,-21zm-970 101l0 -3c63,0 165,-14 233,-21 128,-12 326,-38 449,-59l222 -35c6,11 8,12 14,21 -16,1 -35,6 -54,9 -20,3 -35,5 -54,8 -99,17 -357,51 -452,56l-358 24zm2831 125c-9,33 -186,203 -211,227 -9,8 -16,13 -25,21 -8,7 -16,14 -24,21 -97,78 -231,153 -353,179 -208,44 -384,-12 -543,-133l-97 -81c-30,-29 -68,-60 -90,-88l-228 -258c-8,-8 -99,-109 -102,-121 65,0 19,-16 77,41l124 134c9,9 11,14 19,23 50,54 140,147 191,194 10,9 15,11 25,21 14,15 29,25 45,39 230,201 485,250 764,126 95,-43 177,-107 255,-173 33,-28 82,-73 108,-105l65 -67zm-4101 -212l22 -20c11,-7 14,-1 34,-1 -9,33 -50,21 -56,21zm4257 -21l-3 4 3 -4zm-1975 0c11,-2 24,-4 35,-7 13,25 27,24 -21,28 -6,-9 -8,-10 -14,-21zm1979 -3l-4 3 4 -3zm3 -4l-3 4 3 -4zm-118 171c-4,15 -67,81 -79,95l-42 45c-47,47 -81,82 -134,126l-75 57c-10,6 -17,12 -27,19 -19,11 -35,21 -54,33 -45,27 -131,64 -183,78 -98,24 -204,35 -312,7 -121,-31 -221,-90 -312,-164 -89,-71 -123,-109 -205,-191 -16,-16 -26,-30 -42,-45 -32,-32 -57,-65 -85,-92 -16,-16 -26,-30 -42,-46l-84 -93c13,-1 25,-6 38,-7 11,17 267,273 290,295l88 79c114,89 124,105 249,168 228,114 476,55 655,-53 109,-65 187,-137 275,-225l60 -65c7,-9 12,-15 21,-21zm-1788 -178c5,7 10,14 14,21 -11,1 -24,5 -34,7 -16,-24 -24,-24 20,-28zm-2396 25c2,-3 17,-17 21,-18 12,-7 17,0 35,0 -14,20 -28,31 -56,18zm4306 -25l-4 7 4 -7zm-1903 -3c27,0 42,-10 49,17 -10,0 -28,4 -35,7l-14 -24zm-187 3c19,0 20,-3 38,-3 4,8 8,12 10,21 -9,2 -23,3 -31,7 -5,-8 -12,-16 -17,-25zm-2223 25c-10,-3 -24,-6 -35,-7 8,-10 16,-11 25,-25 10,3 23,6 34,7 -8,13 -14,10 -24,25zm4316 -28l-3 3 3 -3zm-94 129c-6,23 -161,181 -183,199l-68 61c-30,26 -67,51 -100,73 -177,119 -417,196 -665,88 -44,-19 -73,-35 -112,-58 -38,-23 -66,-45 -100,-70 -92,-68 -188,-168 -268,-247 -15,-15 -27,-27 -42,-42l-128 -133c13,0 31,-3 39,-7 13,19 179,172 206,197 46,45 100,96 150,135l118 88c8,6 16,10 25,16 71,47 167,91 259,110 261,54 486,-66 661,-208 16,-13 30,-28 45,-39 34,-26 153,-156 163,-163zm98 -133l-4 4 4 -4zm-2056 0c18,0 19,-3 39,-3 4,17 6,4 10,21 -11,1 -25,4 -35,7 -3,-11 -8,-17 -14,-25zm-977 122l5 -2c1,0 2,0 3,-1l222 -28c197,-23 430,-65 629,-98 16,-3 38,-9 56,-10 7,26 26,19 -19,27 -152,28 -372,60 -524,77l-182 20c-23,3 -40,3 -63,6 -18,3 -45,5 -61,6 -24,1 -39,3 -66,3zm3036 -125l-3 3 3 -3zm-52 63c-6,24 -183,205 -201,219l-93 78c-92,73 -164,111 -271,153 -102,39 -244,53 -368,24 -160,-37 -308,-142 -429,-249l-89 -78c-8,-8 -13,-14 -21,-21l-197 -189c39,-19 46,4 77,30 291,245 567,568 1018,446 128,-35 221,-98 321,-173l253 -240zm-1822 -63c10,0 28,-4 34,-7l18 20c-5,3 -24,8 -31,7 -9,-2 -16,-13 -21,-20zm-143 -4l28 -4c10,-1 17,15 21,22l-28 4c-11,1 -18,-15 -21,-22zm188 -3c5,-2 24,-7 30,-6 9,2 17,12 22,20 -13,0 -27,4 -38,7 -5,-7 -9,-14 -14,-21zm1826 -4c-3,11 -27,36 -36,48 -8,9 -13,13 -20,22 -9,10 -10,12 -20,22 -9,9 -11,13 -19,22l-125 126 -117 95c-61,45 -146,93 -216,121 -86,34 -165,53 -286,52 -170,0 -346,-99 -474,-196l-364 -312c48,-11 35,-7 101,46l134 109c17,14 30,24 46,38 140,114 358,252 554,263 71,4 72,7 149,-4 88,-12 170,-42 246,-81 37,-18 71,-38 104,-60 41,-27 142,-105 182,-144l161 -167zm-1976 0c31,0 35,-15 52,18 -17,0 -18,3 -38,3 -3,-13 -6,-10 -14,-21zm1979 -3l-3 3 3 -3zm-2118 0c11,-3 24,-4 35,-7 13,24 27,24 -21,28 -6,-11 -8,-12 -14,-21zm327 -3l35 -5c2,1 19,16 21,18 -33,8 -38,13 -56,-13zm-146 0c11,-1 25,-5 35,-7 8,12 12,7 14,24l-35 4c-4,-14 -7,-11 -14,-21zm-108 -11c7,11 11,8 14,21 -6,3 -23,6 -31,7 -20,-29 -21,-19 17,-28zm-1074 153l122 -20c208,-30 407,-69 611,-102 34,-6 218,-41 247,-41 3,9 6,12 11,21l-120 19c-123,23 -767,123 -871,123zm3119 -139c4,-12 2,-8 11,-14 -4,12 -2,8 -11,14zm-1746 -10c19,-9 42,-11 49,13 -31,5 -33,10 -49,-13zm-150 0c11,-3 25,-6 36,-7l18 20c-12,1 -26,5 -36,7l-18 -20zm-142 -4c6,-3 27,-6 35,-7 6,11 8,12 14,21 -10,2 -24,6 -35,7 -3,-13 -7,-10 -14,-21zm2052 -3l-3 3 3 -3zm-1867 -4c34,0 33,-10 52,18 -39,4 -38,9 -52,-18zm1871 0l-4 4 4 -4zm-1725 0c33,-1 34,-17 55,14 -12,0 -26,6 -34,4 -5,-1 -18,-13 -21,-18zm-289 0c6,-3 23,-6 31,-7 7,11 11,8 14,21 -10,2 -21,5 -31,7 -6,-9 -8,-10 -14,-21zm2017 -3l-3 3 3 -3zm4 -7l-4 7 4 -7zm-1687 0c30,0 35,-12 52,14 -20,0 -30,11 -44,-1 -12,-10 -4,-6 -8,-13zm-153 3c36,-4 36,-10 52,14 -5,3 -24,7 -31,6 -8,-2 -16,-12 -21,-20zm-143 0c7,-3 25,-7 35,-7 3,13 7,10 14,21 -8,1 -29,4 -35,7 -3,-13 -7,-10 -14,-21zm-177 0c15,0 16,-3 35,-3 4,17 6,4 10,21 -15,0 -16,3 -35,3 -2,-9 -6,-13 -10,-21zm2163 -7l-3 4 3 -4zm-1802 1c12,-2 25,-5 35,-8l18 20c-11,1 -28,5 -35,8l-18 -20zm-142 -4c18,0 18,-3 31,-4l18 20c-44,6 -35,8 -44,-4 -5,-9 -3,-9 -5,-12zm-181 3l28 -4c9,-1 17,16 21,22l-35 4c-6,-10 -8,-11 -14,-22zm-1116 178l0 -4c48,0 710,-130 788,-143l197 -37c21,-3 49,-11 68,-11 5,8 8,12 11,21 -40,9 -90,17 -130,23l-795 133c-23,3 -47,7 -67,10 -24,3 -48,8 -72,8zm3245 -181l-4 3 4 -3zm-1652 0c52,-12 25,-4 52,3l0 7c-16,1 -23,7 -31,6 -7,-1 -17,-9 -21,-16zm-112 -4c20,-9 38,-9 52,11 -22,5 -36,12 -52,-11zm-146 -3c26,0 42,-9 49,17 -15,0 -21,5 -31,3 -14,-3 -17,-19 -18,-20zm-181 3l35 -4c5,8 9,15 14,22l-35 4c-6,-12 -8,-13 -14,-22zm2091 -10c-6,19 -147,166 -154,173 -110,109 -243,217 -386,275 -289,118 -518,53 -761,-111 -9,-7 -13,-10 -22,-17 -72,-49 -141,-107 -210,-162 -9,-7 -14,-11 -23,-19l-114 -94c49,-4 10,-27 102,41 87,66 187,144 278,202 130,83 305,172 469,171 110,0 194,-15 274,-46 40,-16 74,-29 111,-49 83,-45 206,-133 276,-203 28,-28 57,-49 81,-80 11,-14 26,-27 40,-40 14,-15 21,-29 39,-41zm-1614 3c14,0 17,-4 29,-5 16,-2 12,5 26,9l0 7c-29,0 -22,18 -55,-11zm-438 0l34 -4c6,10 8,11 14,22 -42,6 -30,6 -40,-6 -4,-5 -5,-7 -8,-12zm-133 -7c18,0 18,-2 32,-3 4,17 6,4 10,21 -7,3 -22,4 -31,7 -5,-19 -8,-3 -11,-25zm459 4c21,0 45,-14 53,14 -22,3 -35,10 -53,-14zm-146 0c27,0 42,-10 49,17 -33,0 -30,10 -49,-17zm42 -7c32,0 31,-13 49,14 -9,2 -23,6 -30,5 0,0 -10,-6 -10,-7 -14,-12 -3,0 -9,-12zm-184 3c35,0 34,-10 52,18 -34,0 -33,11 -52,-18zm-132 -7c17,0 18,-2 31,-3 3,13 7,10 14,21 -10,2 -24,6 -35,7 -5,-19 -8,-3 -10,-25zm577 4c15,0 18,-5 29,-5 14,-1 9,5 23,8l0 7c-12,1 -23,6 -31,5 -7,-1 -17,-10 -21,-15zm-115 0c19,-2 37,-15 56,10 -31,1 -24,17 -56,-10zm-288 -4c17,0 17,-2 31,-3l18 20c-16,1 -22,6 -31,3 -15,-3 -18,-19 -18,-20zm-1333 206l13 -5c5,-1 10,-2 18,-3 10,-2 22,-5 35,-7l477 -100c138,-27 270,-57 409,-82l141 -26c5,11 11,14 13,24l-549 101c-92,18 -186,33 -276,52 -32,6 -248,46 -281,46zm1197 -209c16,-4 39,-11 42,17 -17,0 -16,1 -28,4 -4,-6 -5,-5 -8,-10 -8,-11 -1,-2 -6,-11zm2108 14c3,-12 5,-12 13,-18 -3,12 -5,12 -13,18zm-1639 -18c16,0 20,-4 31,-2l22 13c-20,2 -30,12 -44,2 -13,-10 -5,-5 -9,-13zm-153 4c18,0 35,-12 53,14 -28,4 -37,10 -53,-14zm-142 0c7,-4 22,-5 31,-7l18 20c-32,1 -31,14 -49,-13zm407 -4c23,0 30,-15 55,7 -18,5 -39,16 -55,-7zm1544 -3l-4 3 4 -3zm-1770 0l34 -4c1,0 11,7 11,7 6,6 4,1 7,11 -38,0 -24,11 -52,-14zm-143 0c49,-11 22,0 49,7l0 7c-16,0 -20,5 -30,2 -7,-2 -15,-11 -19,-16zm-177 0c22,-2 38,-14 45,17 -18,0 -18,3 -31,4 -4,-13 -7,-10 -14,-21zm2093 -4l-3 4 3 -4zm-1620 0c9,0 21,-5 28,-5 11,0 8,5 24,9 -10,14 -31,15 -52,-4zm114 -3c22,0 26,-10 44,-2 14,7 3,-3 12,9 -16,0 -21,6 -31,6 -14,-1 -20,-6 -25,-13zm-226 0c21,0 36,-12 53,10 -18,2 -35,14 -53,-10zm-146 0c16,-1 35,-13 53,14 -43,0 -22,13 -53,-14zm-177 0c33,0 30,-10 49,17 -19,0 -20,4 -35,4 -4,-13 -7,-10 -14,-21zm-170 0c25,-2 28,-13 45,17 -18,0 -16,4 -32,4 -6,-9 -8,-10 -13,-21zm650 -7c15,0 16,-3 25,-3 13,0 11,4 24,7l0 6c-49,8 -21,3 -49,-3l0 -7zm1575 10c4,-12 2,-7 11,-13 -3,12 -1,7 -11,13zm-1690 -10c21,-3 37,-10 52,10 -20,1 -36,12 -52,-10zm-146 0c14,-1 8,-3 21,-3 15,0 22,8 28,17 -32,0 -32,11 -49,-14zm-181 0c18,0 18,-2 32,-3l18 20 -36 5c-5,-8 -9,-15 -14,-22zm-174 0c19,0 20,-3 35,-3 6,11 8,11 14,20 -15,1 -16,4 -35,4 -3,-13 -6,-10 -14,-21zm-1189 230c4,-3 -2,0 7,-4l832 -190c37,-8 269,-53 291,-53 5,17 6,4 11,21 -12,0 -25,4 -36,6 -181,31 -355,69 -534,105 -94,19 -187,41 -282,60 -46,9 -92,19 -141,29 -26,5 -50,10 -73,14 -24,5 -47,12 -75,12zm1916 -233c29,-1 24,-15 54,2 0,0 1,1 2,1 -20,5 -32,17 -56,-3zm-515 0c24,-6 34,-9 49,13 -31,5 -33,10 -49,-13zm-170 -4c16,0 16,-1 28,-3 7,10 10,7 14,20 -35,3 -28,13 -42,-17zm612 0c25,-2 38,-13 52,7l-27 4c-11,1 -20,-6 -25,-11zm-111 0c11,-1 12,-3 24,-3 13,0 12,4 25,7 -12,15 -39,10 -49,-4zm-150 0c15,0 19,-4 28,-2 11,1 8,6 21,9l0 7c-29,0 -32,11 -49,-14zm-142 -3c21,-3 32,-11 48,14 -24,2 -31,12 -48,-14zm-174 0c31,-8 47,4 43,13 -4,8 -18,2 -29,7 -4,-13 -7,-10 -14,-20zm748 0c-35,3 -4,11 -53,0 1,-1 2,-2 3,-2 0,1 34,-20 50,2zm-240 -4c19,-4 32,-7 48,7 -26,2 -28,11 -48,-7zm-153 0c9,0 23,-2 28,-2 12,1 7,5 20,9l0 7c-15,0 -19,5 -29,2 -8,-2 -16,-11 -19,-16zm-317 -3c18,0 16,-3 31,-4 5,7 10,14 14,21 -17,0 -18,2 -31,4 -4,-6 -5,-6 -8,-10 -8,-11 -1,-3 -6,-11zm-167 -4c17,0 16,0 28,-3 6,11 8,11 14,21 -10,2 -24,3 -31,7 -5,-19 -8,-3 -11,-25zm783 0c9,0 13,5 17,11 -51,7 -25,2 -52,-4l35 -7zm-258 4c17,-4 40,-10 46,10 -31,0 -22,10 -46,-10zm-184 0c17,0 18,-1 31,-4 4,6 3,4 8,10l10 8c-24,5 -34,8 -49,-14zm383 -4l0 7c-39,0 -2,7 -46,-3 7,-9 7,-8 23,-9 10,0 12,3 23,5zm-345 0c11,-1 38,-13 45,14 -16,0 -28,8 -45,-14zm-174 -3c31,0 32,-3 46,17 -32,0 -31,11 -46,-17zm612 -7c14,0 7,2 21,3l0 7c-16,1 -11,4 -24,4 -13,0 -7,-3 -21,-4 5,-6 15,-10 24,-10zm-253 7c48,-8 21,-3 48,3l0 7c-25,0 -23,7 -40,-4l-8 -6zm-529 0c31,-3 25,-14 45,17 -17,0 -18,2 -31,4 -6,-10 -8,-10 -14,-21zm-1214 250l32 -10c14,-3 22,-5 36,-9l350 -91c84,-23 649,-158 730,-158 7,0 14,16 17,21 -70,0 -633,127 -729,151 -114,29 -245,55 -358,84 -27,6 -46,12 -78,12zm2070 -243c-14,0 -7,-3 -21,-4 12,-17 38,-7 52,-7 -4,3 1,0 -7,4l-24 7zm-171 -14c15,0 18,-4 27,-3 4,1 5,1 10,3l12 7c-51,7 -23,2 -49,0l0 -7zm-302 3c11,0 24,-2 30,-1 4,1 16,12 18,15 -15,0 -19,5 -29,2 -8,-2 -16,-10 -19,-16zm-178 0c30,0 28,-11 45,14 -22,5 -30,9 -45,-14zm365 -3c45,0 1,-7 46,3l0 7c-24,0 -33,7 -46,-10zm-149 0c14,-1 32,-12 48,10 -19,2 -22,12 -48,-10zm-178 0c22,-12 41,5 46,7l0 7c-11,0 -21,2 -27,1 -7,-2 -15,-10 -19,-15zm-208 0c17,0 18,-3 31,-4 6,9 8,10 14,21 -16,0 -14,4 -31,4 -4,-14 -7,-11 -14,-21zm2201 -7c-3,12 -7,12 -16,22 -109,138 -311,326 -457,402 -61,32 -104,52 -174,73 -22,6 -40,11 -64,16 -304,60 -549,-93 -776,-264l-139 -104c-12,-9 -40,-28 -47,-37 49,-12 25,-13 103,39 195,129 386,280 629,321 256,42 511,-67 701,-232l43 -37c7,-7 12,-13 19,-19 10,-8 13,-10 23,-19 26,-27 51,-52 78,-79l56 -61c7,-9 12,-15 21,-21zm-1624 0c20,0 26,0 42,3l0 7c-20,0 -15,3 -31,-1 -2,0 -1,-1 -11,-2l0 -7zm-139 0c30,0 16,2 35,7 -12,17 -37,2 -46,0 5,-6 1,-7 11,-7zm-400 3c22,-5 30,-8 45,14 -22,5 -30,9 -45,-14zm748 7c-10,0 -5,0 -12,-2 -12,-4 -5,-2 -9,-5 44,-10 14,-4 45,-3 -5,7 -12,10 -24,10zm-52 -10c-12,16 -29,7 -46,3l8 -3c1,0 2,0 2,-1 19,-5 23,0 36,1zm-491 0c22,0 34,-9 49,14 -41,6 -25,7 -49,-14zm1962 -4l-4 4 4 -4zm-1343 11l-11 -8c22,-8 18,-3 39,-3 -6,9 -13,11 -28,11zm-243 -11c31,-7 16,-2 42,0 -10,13 -29,11 -42,0zm-153 0c18,0 28,-7 48,11 -25,0 -35,7 -48,-11zm-181 0c14,-1 8,-3 21,-3 8,0 20,11 24,17 -30,0 -31,8 -45,-14zm-213 1c18,-1 19,-3 32,-4 7,11 10,8 14,21 -16,0 -16,0 -28,3l-18 -20zm658 -4c27,-2 15,-7 45,0 0,0 -2,0 -2,1 0,1 -2,1 -2,1 -1,0 -22,10 -41,-2zm-223 0c21,-2 21,-12 42,7 -26,2 -21,11 -42,-7zm-184 0c22,-5 25,-8 45,10 -19,1 -29,13 -45,-10zm-212 0c15,-1 27,-13 45,14 -22,2 -27,12 -45,-14zm-205 0c17,0 18,-3 31,-4 6,9 8,10 14,21 -32,5 -27,10 -45,-17zm901 0c22,-2 20,-11 46,-1 0,0 2,0 2,1 -19,1 -19,9 -36,5 -1,0 -4,-1 -5,-2 -9,-3 -4,-1 -7,-3zm-129 -7c13,0 6,2 21,3 -9,14 -19,6 -42,4 1,-1 2,-2 2,-1 1,0 2,-1 3,-1 3,-2 0,-5 16,-5zm-129 0c20,0 24,2 38,3l0 7 -38 -2 0 -8zm-188 3c18,-10 34,1 46,11 -10,0 -24,2 -28,1 -6,0 -13,-6 -18,-12zm-212 -3c13,0 19,-2 29,3 3,2 14,11 16,14 -17,0 -18,1 -31,4 -4,-6 -5,-5 -8,-10 -8,-11 -1,-2 -6,-11zm-195 0c17,0 26,-3 32,17 -11,6 -16,4 -32,4 -3,-15 -20,-21 0,-21zm929 3c18,-4 22,-7 45,-7l0 7c-14,2 -15,7 -32,5l-13 -5zm-473 -7c25,0 15,3 31,7 -11,17 -31,3 -41,0 4,-6 0,-7 10,-7zm-1704 282c7,-10 -3,-3 32,-13l537 -152c152,-43 367,-91 526,-117 24,-4 57,-8 80,-14 6,12 8,12 14,21 -23,6 -53,10 -77,14 -27,4 -51,10 -76,14 -183,30 -414,92 -594,137 -55,13 -403,110 -442,110zm2073 -275l0 -7c30,0 19,-3 36,3 0,0 1,0 2,1 -14,1 -19,3 -38,3zm-38 -3c-42,3 0,3 -42,0l5 -2c14,-5 20,-5 32,-1 0,1 2,1 2,2 1,0 2,0 3,1zm-157 -4c21,0 28,0 45,4 -1,0 -2,0 -2,1l-22 4c-9,0 -15,-3 -21,-9zm-136 -3c15,0 20,0 32,10 -40,4 -5,5 -42,-3 4,-6 0,-7 10,-7zm-267 3c36,0 28,-3 48,14 -32,8 -27,5 -48,-14zm-202 0c16,0 15,0 28,-3l18 20c-19,1 -19,3 -32,4 -4,-13 -7,-10 -14,-21zm869 0c17,-1 27,-3 49,-3l-5 2c-1,1 -27,12 -44,1zm-201 -7c9,0 2,0 13,5l4 2c-22,6 -13,6 -35,0l18 -7zm-167 0c13,0 20,0 33,6l6 4c1,0 2,0 2,1 -6,0 -18,1 -22,2 -10,0 -7,-3 -19,-6l0 -7zm-261 4c23,0 31,-7 45,14 -14,0 -19,4 -26,1 -5,-1 -17,-12 -19,-15zm-202 0c21,-5 27,-9 42,14 -30,7 -31,6 -42,-14zm797 -4c17,0 19,-3 38,-3l-38 3zm-77 0c8,0 16,-1 22,-1 8,0 11,1 23,1l0 4c-22,0 -21,7 -40,-1 -1,0 -2,-1 -3,-1 0,-1 -1,-1 -2,-2zm-205 -3c12,0 21,4 28,10 -21,0 -26,1 -42,-3 3,-3 6,-7 14,-7zm-275 3c25,0 35,0 45,14 -26,0 -34,3 -45,-14zm-205 -3c31,0 32,-2 45,17 -31,0 -30,12 -45,-17zm876 3c23,-1 19,-8 42,-3 -3,3 0,2 -8,6 -11,5 -24,4 -34,-3zm-261 -3c19,0 27,-4 35,7 -5,0 -15,0 -20,0 -10,-2 -9,-2 -15,-7zm-93 -4c9,0 3,3 17,4 -9,13 -7,6 -35,3 3,-1 2,-1 7,-3 10,-4 -3,-4 11,-4zm-282 4c25,0 38,0 49,14 -33,0 -31,2 -49,-14zm602 3l14 -6c8,-1 16,-1 24,-1 -5,3 3,0 -7,4 -12,4 -19,3 -31,3zm-112 -7l39 4c-7,0 -18,1 -22,1l-17 -5zm-73 0l35 0 0 4 -35 0 0 -4zm-80 4c-21,2 -10,2 -31,0 15,-10 23,-6 31,0zm-257 -4c14,-1 8,-3 17,-3 10,0 20,8 25,14 -29,0 -26,4 -42,-11zm-42 0c27,0 34,-3 45,14 -25,0 -34,1 -45,-14zm-243 0c31,0 32,-2 45,18 -31,0 -32,2 -45,-18zm-199 0c11,0 34,-13 42,18 -16,0 -15,1 -28,3 -6,-9 -8,-9 -14,-21zm974 -3l32 0c-13,8 -22,9 -32,0zm-226 0l31 0 0 3 -31 0 0 -3zm-229 0c21,0 29,-3 45,10 -21,0 -30,3 -45,-10zm-286 0c21,0 31,-6 46,14 -23,5 -31,9 -46,-14zm-198 -3l31 0c5,6 7,9 11,17 -29,2 -27,11 -42,-17zm901 0l28 0 0 3 -28 0 0 -3zm-66 6l17 -3c-8,2 -8,3 -17,3zm-80 -6l28 0 0 3 -28 0 0 -3zm-191 0c19,0 25,-2 38,6 -22,0 -27,4 -38,-6zm-39 0c14,0 21,-1 33,5l7 4c0,0 1,0 2,1 -23,0 -31,3 -42,-10zm-288 0c25,0 31,-3 41,13 -28,1 -25,11 -41,-13zm-1499 299c9,-9 16,-8 32,-13 350,-115 723,-231 1083,-291 23,-4 60,-11 85,-13 6,9 8,10 13,21 -22,1 -133,22 -160,27 -54,11 -105,21 -156,32 -130,27 -321,77 -452,115 -48,14 -97,28 -146,42 -48,14 -252,80 -299,80zm2316 -296c12,-8 19,-7 35,-7 -12,8 -20,7 -35,7zm-184 -7l17 0 0 4 -17 0 0 -4zm-73 0l17 0 0 4 -17 0 0 -4zm-153 0l24 0c-9,8 -13,8 -24,0zm-7 7c-19,0 -21,0 -35,-3 12,-8 26,-3 35,3zm-327 -10c27,0 26,0 41,13 -15,0 -24,7 -35,-3 -12,-11 0,2 -6,-10zm-39 3c29,0 30,-4 42,14 -25,1 -26,10 -42,-14zm-236 0c16,0 16,-1 28,-3l18 20c-18,0 -19,3 -32,4 -4,-13 -7,-10 -14,-21zm988 7l0 -7c15,0 11,-2 24,-3 -6,8 -11,9 -24,10zm-42 -3l4 -3c12,-5 15,-4 27,-4 0,0 -2,0 -2,1l-29 6zm-35 -7l18 0 0 3 -18 0 0 -3zm-219 0l17 0 0 3 -17 0 0 -3zm-45 0c18,0 13,-4 21,7 -10,-1 -4,0 -12,-3 -12,-4 -5,-2 -9,-4zm-337 0c28,0 25,-4 41,10 -14,1 -8,3 -17,3 -11,0 -18,-8 -24,-13zm-275 0c23,-1 35,-8 41,17 -29,0 -29,1 -41,-17zm434 -7c12,0 21,4 28,10 -18,0 -20,0 -34,-3 1,-4 2,-7 6,-7zm-45 3c19,0 21,0 35,4 -3,1 -1,2 -7,4 -11,4 -18,1 -28,-8zm-41 0c19,0 27,-2 41,11 -12,0 -22,1 -34,-5 -6,-3 -5,-4 -7,-6zm-39 0c24,0 36,1 46,14 -30,0 -29,1 -46,-14zm-274 0c28,-1 25,-11 41,14 -20,5 -26,9 -41,-14zm918 -3l17 0 0 3 -17 0 0 -3zm-327 0c3,-4 13,5 4,1 0,0 -10,4 -4,-1zm-28 3l-14 0c7,-4 -8,-4 7,-3 7,1 3,1 7,3zm-56 -3l18 0 0 3 -18 0 0 -3zm-41 0c12,0 24,0 34,7 -15,0 -22,1 -34,-7zm-7 7c-18,0 -18,-1 -32,-4l17 -3c6,1 3,0 8,3 5,2 4,2 7,4zm-425 -7c12,-1 27,-11 46,14 -14,0 -15,1 -25,3 -7,-5 -14,-11 -21,-17zm960 3l5 -3c11,-5 14,-4 27,-4 -11,7 -19,7 -32,7zm-38 0c9,-6 20,-7 31,-7 0,1 -2,0 -2,1l-29 6zm-887 -7c16,0 16,0 28,-3 4,5 2,4 8,9l9 8c-13,0 -14,1 -24,4 -8,-6 -14,-12 -21,-18zm-229 0l20 -3c8,0 19,11 19,15 0,9 -15,6 -29,6 -3,-13 -4,-8 -10,-18zm685 -3l1 1c0,0 -2,-1 -1,-1zm-39 0c4,-4 20,6 5,1 -1,0 -11,5 -5,-1zm-333 -4c16,0 20,3 27,14 -13,1 -20,10 -33,-6 -4,-4 -13,-8 6,-8zm-49 4c34,0 26,-3 45,14 -14,0 -14,1 -24,3 -8,-5 -14,-11 -21,-17zm-230 -4l32 0c3,13 3,7 10,18 -29,2 -27,11 -42,-18zm1092 0c4,-4 14,6 4,2 0,0 -9,4 -4,-2zm-528 0c9,0 7,0 15,2l13 5c-12,0 -18,0 -28,-7zm-39 0c6,0 11,0 17,1l-10 3c-5,-2 -4,-2 -7,-4zm-3 7c-17,0 -18,0 -31,-3l16 -3c6,1 3,0 8,2 5,2 4,2 7,4zm-38 -3c-1,0 -2,0 -3,1 -2,5 -25,-1 -29,-1 10,-7 21,-3 32,0zm-70 -4c19,0 24,-2 35,7 -6,0 -16,1 -21,0 -9,-2 -8,-2 -14,-7zm-35 0c18,0 25,-1 39,11 -22,0 -29,3 -39,-11zm-38 0c27,0 23,-3 38,11 -21,0 -28,3 -38,-11zm-38 0c23,0 32,0 42,14 -24,0 -32,0 -42,-14zm-1590 320l367 -127c29,-8 49,-15 76,-25 216,-71 495,-146 723,-178 41,-5 65,-15 73,14 -44,0 -287,49 -327,59 -257,63 -507,134 -756,218 -45,14 -110,39 -156,39zm2425 -323c3,-4 13,5 3,2 0,-1 -9,4 -3,-2zm-1103 0c29,0 30,-1 42,17 -17,0 -16,1 -28,4 -5,-7 -9,-14 -14,-21zm1130 3c1,0 2,-2 3,-1 0,0 1,-1 2,-2 1,0 7,-3 7,-3 15,-2 9,1 13,3 -10,2 -11,3 -25,3zm-587 -7l1 1c0,0 -2,0 -1,-1zm-32 0c4,-3 14,6 4,2 0,0 -9,4 -4,-2zm-480 0c31,0 32,-2 46,18 -31,0 -32,2 -46,-18zm449 0l-14 0c7,-4 -8,-4 7,-3 8,1 3,1 7,3zm-376 -3c17,-9 33,-1 42,14 -28,0 -29,4 -42,-14zm-38 0c31,0 32,-3 45,17 -30,0 -32,2 -45,-17zm1075 -4l1 1c0,0 -1,0 -1,-1zm-689 7c-16,0 -15,0 -28,-3 1,-1 2,-2 3,-1l25 4zm-35 -3c-10,7 -21,1 -27,0 10,-7 21,-2 27,0zm-278 -4c27,0 27,-3 38,14 -26,0 -26,4 -38,-14zm1033 -3c4,-4 20,6 5,1 -1,0 -11,5 -5,-1zm-824 0c16,0 26,0 38,10 -8,0 -15,1 -23,-1l-15 -9zm-35 0c18,0 25,-2 38,10 -8,0 -15,1 -23,-1l-15 -9zm-35 0c18,0 25,-2 39,10 -28,0 -23,3 -39,-10zm-34 0c20,0 25,-2 34,10 -9,0 -17,2 -20,1 -6,-1 -11,-7 -14,-11zm-39 0c26,0 31,-2 42,14 -32,0 -24,2 -42,-14zm-34 0c31,0 23,-2 41,14 -17,0 -13,5 -25,1l-16 -15zm-261 0c43,-10 47,17 31,17 -17,0 -19,1 -31,-17zm1276 -4c4,-3 13,6 4,2 0,0 -10,4 -4,-2zm-748 0c4,-4 20,6 5,2 -1,0 -11,4 -5,-2zm-483 -3c16,0 19,-1 31,17 -14,1 -8,4 -21,4 -8,0 -32,-21 -10,-21zm445 0l14 3c-2,0 -6,0 -7,0 -6,-2 -4,-1 -7,-3zm-410 -4c14,0 17,2 27,18 -14,1 -7,3 -20,3 -2,0 -31,-21 -7,-21zm-1353 345c14,-10 424,-157 447,-165 51,-17 103,-37 154,-51l159 -47c99,-28 231,-57 335,-75l135 -19c17,-2 25,4 29,19 -35,0 -134,19 -173,26 -53,9 -111,22 -164,34 -131,31 -262,67 -390,108l-449 152c-32,10 -41,18 -83,18zm1749 -341c-7,4 8,2 -10,3 -10,0 -3,-1 -14,-3 3,-2 -4,-7 24,0zm-373 -3c19,-2 21,-13 39,13 -15,1 -11,3 -24,4l-15 -17zm398 -4c3,-4 13,5 3,2 0,0 -9,4 -3,-2zm-87 0c14,0 19,0 31,10 -11,0 -10,1 -19,-2 -6,-2 -9,-5 -12,-8zm-7 3c-11,7 -22,2 -28,0 10,-6 21,-1 28,0zm-237 -7c13,0 16,-1 25,3 4,2 14,11 17,15 -16,0 -28,2 -38,-11 0,-1 -1,-2 -1,-2 -1,-1 -2,-4 -3,-5zm-35 4c27,0 27,-4 39,14 -8,2 -8,3 -18,3 -9,0 -17,-11 -21,-17zm1183 -4l1 1c0,0 -2,0 -1,-1zm-852 0c4,-4 20,6 4,2 0,0 -10,4 -4,-2zm-125 0c8,0 11,0 19,2 0,0 7,2 7,3 7,3 6,3 8,6 -25,0 -20,2 -34,-11zm-32 0c19,0 23,-1 32,11 -23,0 -22,4 -32,-11zm-35 0c26,0 21,-2 35,11 -23,0 -25,4 -35,-11zm-34 0c22,0 29,2 38,14 -27,0 -27,4 -38,-14zm-39 0c24,0 32,1 42,14 -32,0 -23,2 -42,-14zm1148 -3l1 1c0,0 -1,-1 -1,-1zm-922 0l14 0c-6,4 8,4 -7,3 -7,-1 -3,-1 -7,-3zm0 0l-7 -2 7 2zm-448 -4c14,-1 8,-3 21,-3 3,0 43,21 0,21 -10,0 -17,-11 -21,-18zm407 -3c10,1 3,-1 11,2 13,4 5,2 10,5 -15,0 -12,1 -21,-7zm-372 0c13,0 14,-1 24,-4 7,11 10,8 14,21 -27,0 -27,0 -38,-17zm337 -4c10,3 18,5 28,7 -5,3 0,2 -8,3 -5,1 -2,1 -8,0 -11,-3 -8,-3 -12,-10zm-31 0c13,0 14,2 24,4 -2,1 1,5 -14,3 -10,-1 -5,1 -10,-7zm-275 0c29,0 29,0 42,18 -29,0 -30,1 -42,-18zm-1360 362l16 -8c7,-3 11,-4 18,-7l258 -103c324,-129 586,-209 928,-255 12,-2 32,-3 46,-6 7,11 10,8 14,21 -29,0 -64,7 -91,10 -29,4 -58,9 -86,15 -178,35 -317,67 -490,125 -24,8 -52,16 -76,25 -71,26 -152,50 -229,80l-261 98c-19,6 -24,5 -47,5zm-1642 -362c16,2 130,47 158,55 22,6 35,10 56,17 219,73 397,116 618,168 13,4 49,10 59,14 -18,26 -34,21 -48,17 -156,-39 -241,-55 -411,-107 -168,-52 -254,-86 -406,-151 -12,-5 -16,-4 -26,-13zm3353 -3c4,-4 13,6 4,2 0,0 -10,4 -4,-2zm-115 0c19,0 23,-1 32,10 -23,0 -18,2 -32,-10zm-31 0c19,0 23,-1 31,10 -22,0 -21,4 -31,-10zm-101 0c22,-2 22,-6 35,14 -25,0 -24,2 -35,-14zm-35 0c22,0 30,1 39,14 -28,0 -24,8 -39,-14zm-34 0c12,0 15,-2 25,3 3,2 14,11 16,14 -29,0 -29,1 -41,-17zm-3037 3l-7 -1 7 1zm3322 -6c4,-4 20,5 4,1 0,0 -10,5 -4,-1zm-21 0l7 1 -7 -1zm-132 0c25,0 24,2 38,13 -24,0 -28,1 -38,-13zm-35 0c24,0 28,-1 38,13 -22,0 -29,-1 -38,-13zm-3148 0l1 1c0,0 -1,-1 -1,-1zm4372 -4c4,-4 13,6 4,2 0,0 -10,4 -4,-2zm-1057 4c-2,0 -6,0 -7,-1 -6,-2 -3,-1 -7,-3 2,0 6,0 7,0 6,2 4,1 7,4zm1082 -7c-5,3 7,3 -11,3 4,-3 -4,-2 11,-3zm-1096 3l-7 -2 7 2zm17 -7l2 1c-1,0 -2,-1 -2,-1zm-59 0c12,1 21,5 32,7 -5,3 0,2 -8,3 -6,0 -2,1 -8,-1 -7,-1 -12,-6 -16,-9zm-27 0c13,0 14,1 24,4 -7,4 -11,3 -21,3l-3 -7zm-268 -3c26,0 27,0 38,17l-28 0 -10 -17zm-35 3c29,0 29,-1 42,17 -29,0 -30,1 -42,-17zm303 0l-8 -2 8 2zm-39 -3c19,0 23,-2 32,10 -23,0 -18,1 -32,-10zm-195 0c11,-1 13,-2 21,-4l15 17c-30,1 -20,10 -36,-13zm-3046 0l211 91c38,14 71,29 111,42l115 38c61,21 432,128 484,128 -2,9 -9,15 -18,20 -14,9 -64,-8 -94,-15 -44,-12 -86,-22 -128,-33 -210,-56 -363,-110 -551,-200l-105 -55c-11,-6 -19,-7 -25,-16zm3321 -4c4,-4 20,6 5,2 -1,-1 -11,4 -5,-2zm-17 0l0 0zm-98 0c25,0 25,2 39,14 -22,0 -29,-1 -39,-14zm-31 0c25,0 25,2 38,14 -23,0 -28,1 -38,-14zm-31 0c22,0 26,0 35,14 -25,0 -24,3 -35,-14zm-35 0c29,0 22,0 38,14 -27,0 -26,4 -38,-14zm-35 0c29,0 30,-1 42,18 -29,0 -29,0 -42,-18zm-1391 383c-23,0 -17,-3 -31,-4 4,-3 -1,0 6,-4l138 -61c24,-12 47,-20 72,-31 216,-93 486,-197 711,-246 93,-21 271,-54 370,-54 5,7 9,14 14,21 -27,0 -67,6 -91,9 -265,39 -566,126 -812,225l-225 88c-25,10 -133,57 -152,57zm1621 -383l-14 0c6,-4 -8,-4 7,-3 7,1 3,1 7,3zm-49 -7c14,0 14,1 25,4 -3,2 2,5 -13,2 -1,0 -4,-1 -5,-2 -5,-2 -4,-2 -7,-4zm1231 -3c1,-1 1,0 1,1l-1 -1zm-1182 0l1 1c0,0 -1,-1 -1,-1zm-49 3l0 0zm1242 -7c4,-3 13,6 4,2 0,0 -10,4 -4,-2zm-1204 0l1 1c0,0 -1,0 -1,-1zm-17 0c4,-3 13,6 4,2 0,0 -10,4 -4,-2zm-59 0c9,2 18,5 28,7 -5,3 0,2 -8,3 -5,1 -2,1 -8,0 -11,-3 -8,-4 -12,-10zm-31 0c23,0 18,-1 31,11 -9,-1 -13,-1 -18,-3 -8,-3 -9,-4 -13,-8zm1325 -3l1 1c0,0 -2,-1 -1,-1zm-1249 0c4,-4 20,6 4,1 0,0 -10,5 -4,-1zm-17 0l7 2 -7 -2zm-94 0c19,0 23,-1 31,10 -23,0 -18,1 -31,-10zm-31 0c22,0 21,-4 31,10 -23,0 -18,1 -31,-10zm-164 0c27,0 27,0 38,17l-27 0c-4,-13 -4,-7 -11,-17zm1565 -4c4,-3 13,6 4,2 0,0 -10,4 -4,-2zm-1436 0c22,0 25,1 35,14 -22,0 -26,0 -35,-14zm-32 0c23,0 30,-1 35,18 -24,0 -25,-3 -35,-18zm-34 0c26,0 30,1 41,18 -26,0 -30,-1 -41,-18zm-32 0c27,0 27,1 39,18 -10,2 -7,3 -14,3 -10,0 -20,-14 -25,-21zm1555 -3c-5,3 7,3 -10,3 4,-3 -4,-2 10,-3zm-1269 0l1 1c0,0 -2,-1 -1,-1zm-28 7c-18,-1 -10,3 -18,-7l18 7zm1307 -11c-3,4 7,4 -10,4 4,-4 -6,-4 10,-4zm-1304 0c1,0 1,1 1,1l-1 -1zm-52 0c13,1 18,3 24,11 -15,-1 -17,-1 -24,-11zm-1589 404l6 -4c4,-2 5,-2 10,-4l128 -60c95,-40 195,-89 300,-131 27,-11 50,-21 77,-31 131,-53 268,-95 406,-130 109,-28 271,-54 387,-54 6,0 34,16 1,18 -368,17 -742,167 -1077,307l-155 67c-81,33 -33,22 -83,22zm1631 -407c3,-4 13,5 4,2 0,0 -10,4 -4,-2zm-77 0c18,0 21,0 28,10 -20,0 -17,-1 -28,-10zm-35 -4c11,0 10,-1 19,3 7,2 9,5 13,8 -23,0 -18,1 -32,-11zm77 -3c10,2 8,2 14,7 -16,-1 -6,4 -14,-7zm-108 0c6,0 15,2 20,4 7,3 10,5 15,10 -22,0 -26,-1 -35,-14zm-31 0c19,0 27,3 35,14 -22,0 -26,-1 -35,-14zm-129 -4c24,0 25,3 35,18 -8,0 -16,1 -23,-2 -10,-4 -9,-10 -12,-16zm1628 0l1 1c0,0 -1,0 -1,-1zm-1391 0c18,1 10,-3 17,7 -12,-1 -10,0 -17,-7zm-143 0c21,2 29,4 38,18 -24,-6 -25,1 -38,-18zm-31 0c22,0 25,1 35,14 -10,3 -7,4 -14,4 -10,0 -17,-12 -21,-18zm-31 0c26,0 27,1 38,18 -27,0 -27,-1 -38,-18zm1606 -3l1 1c0,0 -1,-1 -1,-1zm-1401 3l-8 -2 8 2zm1408 -7c4,-3 13,6 4,2 0,0 -10,4 -4,-2zm-1394 0c0,0 1,1 1,1l-1 -1zm-53 0c14,1 18,2 28,11 -13,0 -17,-1 -28,-11zm-1551 421l18 -10c6,-3 11,-6 18,-9 144,-72 351,-167 498,-226l162 -60c78,-26 180,-59 259,-76 121,-26 216,-42 339,-50 28,-2 31,-2 42,14 -36,0 -67,5 -101,7 -65,3 -223,34 -282,48 -158,37 -264,78 -414,132 -95,34 -213,92 -308,131 -26,11 -50,24 -76,35l-74 34c-22,11 -56,30 -81,30zm3009 -424c3,-4 13,5 4,2 0,0 -10,4 -4,-2zm-1416 0c1,0 1,1 1,1l-1 -1zm-73 0c18,0 20,0 28,10 -20,0 -17,0 -28,-10zm1506 -3l-7 4 7 -4zm-1461 0c18,0 6,-1 11,3 -19,0 -5,0 -11,-3zm-76 0c21,0 23,3 35,13 -18,0 -28,-3 -35,-13zm1548 -4c-4,4 6,4 -11,4 4,-4 -6,-4 11,-4zm-1472 4l-7 -2 7 2zm-107 -4c15,0 24,5 31,14 -23,0 -22,1 -31,-14zm-32 0c20,0 27,3 35,14 -19,0 -27,-3 -35,-14zm-31 0c25,0 24,-2 35,14 -25,0 -21,-2 -35,-14zm-28 0c23,0 22,-1 31,14 -22,0 -21,1 -31,-14zm-35 0c25,0 24,-2 35,14 -25,0 -24,2 -35,-14zm1715 -3c-4,3 6,3 -10,3 3,-4 -7,-3 10,-3zm-1516 0c12,1 10,0 17,7 -12,-2 -10,-1 -17,-7zm10 -7c4,-4 13,5 4,1 0,0 -10,4 -4,-1zm-45 0c5,1 9,1 13,3 7,3 6,3 11,7 -16,0 -17,-1 -24,-10zm-1541 438c4,-3 -1,0 6,-5 3,-1 6,-3 9,-5l93 -46c13,-6 21,-12 36,-20 26,-13 48,-24 74,-37 337,-169 749,-336 1125,-336 9,0 13,8 17,14 -273,23 -395,51 -649,137 -86,29 -237,91 -319,130l-155 70c-13,6 -24,12 -38,19l-152 74c-25,11 -16,5 -47,5zm1562 -442l7 2 -7 -2zm-53 0c11,0 7,-1 16,2 6,3 9,5 12,9 -19,0 -16,-1 -28,-11zm53 0c-18,0 -6,0 -11,-3 19,0 5,0 11,3zm-25 -3l0 0zm-59 0c16,0 25,4 31,14 -15,-1 -24,-5 -31,-14zm-28 0c18,0 21,0 28,10 -17,0 -20,0 -28,-10zm0 0l0 0zm-31 -4c20,0 23,2 31,14 -22,0 -21,1 -31,-14zm-31 0c19,0 27,3 35,14 -26,0 -24,3 -35,-14zm-32 0c26,0 24,-2 35,14 -25,0 -24,3 -35,-14zm181 4c-18,-1 -10,3 -17,-7 12,1 10,0 17,7zm-48 -11c10,0 12,2 20,4 -5,3 9,4 -9,2 -7,-1 -8,-3 -11,-6zm41 -3l1 1c0,0 -1,-1 -1,-1zm-41 3l0 0zm-1503 452c-27,0 -11,2 -21,-3 6,-8 56,-33 69,-40l524 -255c128,-55 200,-73 329,-112 130,-38 299,-56 435,-56 10,0 13,8 17,14 -113,0 -291,28 -395,54 -207,52 -318,101 -501,177 -26,11 -50,25 -76,36 -59,24 -365,185 -381,185zm1517 -459l7 2 -7 -2zm-49 0c14,1 24,5 31,14 -4,-1 -12,-3 -16,-4 -7,-3 -10,-5 -15,-10zm1697 -3l1 1c0,0 -1,-1 -1,-1zm-1648 3l-8 -2 8 2zm-21 -3c0,-1 1,0 1,1l-1 -1zm-59 0c16,1 23,3 31,14 -21,0 -20,-5 -31,-14zm-25 0c19,0 16,-2 25,10 -19,0 -16,2 -25,-10zm1760 -4l1 1c0,0 -1,0 -1,-1zm-1704 0l7 2 -7 -2zm-91 0c25,0 21,2 35,14 -19,0 -27,-3 -35,-14zm-27 0c22,0 21,-1 31,14 -23,0 -22,1 -31,-14zm1829 -3c4,-4 13,5 4,2 0,0 -10,4 -4,-2zm-1701 0c10,2 8,1 14,7 -16,-2 -6,3 -14,-7zm1711 -4c1,0 1,1 1,1l0 0c0,0 -1,0 -1,-1zm-1721 7c-18,0 -10,3 -18,-7 13,1 11,1 18,7zm1735 -10l-6 4 6 -4zm-1718 0c4,-4 13,5 4,2 0,0 -10,4 -4,-2zm-66 0c16,0 18,1 25,10 -10,0 -8,0 -15,-3 -5,-2 -7,-4 -10,-7zm-1485 469l285 -160c26,-12 48,-25 73,-38l113 -54c13,-7 24,-13 37,-18 27,-11 50,-23 77,-35 15,-6 24,-10 40,-16 212,-85 440,-159 679,-159 64,0 76,-7 91,14 -153,0 -289,23 -413,54 -129,32 -236,72 -349,117l-162 71c-43,18 -260,129 -310,156l-114 63c-29,15 -16,5 -47,5zm3276 -473l-7 4 7 -4zm-1749 0c18,0 6,0 10,4 -18,0 -5,0 -10,-4zm-42 4l0 0zm-31 -4c17,0 20,0 28,11 -20,0 -17,-1 -28,-11zm1833 -3c-4,3 6,3 -11,3 4,-3 -6,-3 11,-3zm-1760 3l0 0zm-73 0l0 0zm-28 -3c20,0 19,1 28,14 -18,-1 -21,-3 -28,-14zm1868 -4l-7 4 7 -4zm-1798 0c9,1 9,2 17,4 -5,3 8,5 -9,2 -13,-3 -5,-3 -8,-6zm-105 0c20,0 23,2 32,14 -18,0 -25,-4 -32,-14zm1910 -3l-7 3 7 -3zm-1805 3l-8 -1 8 1zm10 -7l1 1c0,0 -1,0 -1,-1zm-45 0c16,1 15,3 24,11 -9,-1 -8,-1 -14,-3 -5,-3 -7,-5 -10,-8zm38 -3c0,0 1,1 1,1l-1 -1zm-66 0c16,0 18,1 24,10 -15,0 -17,-1 -24,-10zm-1450 487c-28,0 -11,1 -21,-4 8,-10 53,-33 68,-42l284 -162c25,-13 50,-23 74,-37l151 -72c24,-10 52,-24 77,-34 27,-11 54,-21 80,-31 163,-61 366,-115 553,-115 54,0 99,-9 125,13 -201,0 -379,30 -553,88 -14,5 -29,8 -44,14 -57,23 -109,38 -172,65 -54,24 -108,47 -160,73l-157 80c-13,7 -23,12 -36,19l-229 126c-11,7 -26,19 -40,19zm1492 -490l7 1 -7 -1zm-73 0c19,0 16,0 28,10 -20,0 -17,-1 -28,-10zm73 0l-8 -2 8 2zm-101 -4c20,0 19,1 28,14 -21,0 -20,-1 -28,-14zm69 -3c17,1 6,-4 14,7 -16,-2 -6,3 -14,-7zm-7 -4c1,0 1,1 1,1l-1 -1zm18 -3l1 1c0,0 -1,-1 -1,-1zm-45 0c16,0 15,2 24,10 -9,-1 -8,-1 -14,-3 -5,-3 -7,-5 -10,-7zm38 -4c0,0 1,1 1,1l-1 -1zm-66 0c15,0 17,1 24,11 -15,-1 -17,-2 -24,-11zm-1464 501c6,-9 53,-35 67,-44 23,-15 45,-28 69,-42 47,-29 92,-55 140,-83 150,-89 252,-135 408,-204 99,-45 275,-99 384,-117 119,-20 210,-27 330,-18 30,2 20,-2 38,14l-70 -3c-345,0 -645,128 -908,259 -28,14 -50,27 -76,40l-112 61c-13,8 -26,15 -38,22l-149 87c-70,42 -38,28 -83,28zm1506 -504l7 2 -7 -2zm-70 0c16,0 18,1 24,10 -19,0 -16,2 -24,-10zm70 0l-8 -2 8 2zm-32 -7c16,1 6,-4 14,7 -16,-2 -6,3 -14,-7zm-7 -4c1,0 1,1 1,1l-1 -1zm18 -3l1 1c0,0 -2,-1 -1,-1zm-46 0c17,0 16,2 25,10 -10,-1 -8,0 -14,-3 -5,-2 -7,-4 -11,-7zm39 -4c0,0 1,1 1,1l-1 -1zm-66 0c15,1 17,1 24,11 -16,-1 -15,-3 -24,-11zm-1423 518l-28 -4c18,-22 378,-235 413,-254l73 -38c230,-115 502,-232 773,-232l140 3c31,2 39,1 48,14l-94 -3c-150,0 -284,25 -400,58 -85,24 -175,56 -255,90 -27,12 -53,24 -79,36 -53,24 -101,49 -154,75 -14,8 -21,13 -36,20l-401 235zm1464 -521l8 2 -8 -2zm0 0l-7 -2 7 2zm-31 -7c16,1 6,-4 14,7 -10,-2 -8,-2 -14,-7zm0 0l0 0zm11 -7l1 1c-1,0 -2,-1 -1,-1zm-42 0c14,1 15,2 21,10 -14,-1 -15,-2 -21,-10zm35 -4l1 1c0,0 -2,0 -1,-1zm-1482 533c-12,0 -14,-3 -24,-4l65 -46c12,-8 21,-14 33,-22 137,-91 311,-197 455,-269 68,-35 118,-59 190,-88 89,-36 205,-73 299,-91 119,-23 271,-33 396,-15 20,3 18,3 29,13 -15,0 -17,-2 -28,-3l-111 -4c-195,0 -395,55 -563,122 -25,10 -55,22 -80,34 -13,7 -26,11 -39,18l-191 97c-25,13 -49,26 -74,41l-318 196c-11,7 -25,21 -39,21zm1457 -536l8 2 -8 -2zm0 0l0 0zm-31 -7c9,1 9,2 17,3 -5,3 8,6 -9,2 -12,-3 -5,-2 -8,-5zm0 0l0 0zm10 -7c4,-4 14,6 4,2 0,0 -9,4 -4,-2zm-1471 543c-32,0 -19,1 -28,-4 8,-11 24,-18 36,-27 51,-39 137,-94 192,-131 28,-18 51,-33 79,-50 27,-17 53,-33 80,-49 89,-54 160,-89 253,-136 57,-29 120,-53 182,-76 88,-33 211,-64 309,-76 20,-3 37,-4 57,-6 27,-4 154,-3 184,1 30,3 87,1 110,21 -25,0 -86,-10 -136,-10 -149,0 -291,21 -427,67 -103,34 -186,66 -283,113 -15,7 -25,12 -40,19 -132,67 -302,169 -429,253 -15,10 -132,91 -139,91zm1444 -550l7 2 -7 -2zm0 0l-8 -2 8 2zm-21 -14l1 1c0,0 -2,-1 -1,-1zm-7 -3l1 1c0,0 -2,-1 -1,-1zm-1485 556c19,-27 372,-256 409,-279 85,-51 136,-79 222,-122 26,-13 54,-26 79,-37 134,-54 302,-117 448,-125 112,-7 112,-12 232,0 16,2 36,6 54,9 22,3 43,3 51,15 -61,-5 -67,-14 -149,-14 -183,0 -291,21 -446,73 -103,34 -230,89 -325,140 -14,8 -23,13 -36,20l-427 269c-14,8 -22,15 -35,24 -13,9 -23,15 -35,24 -7,6 -10,8 -17,8 -8,1 -21,-3 -25,-5zm1443 -574l1 1c0,0 -1,0 -1,-1zm-17 -3l13 0c-6,4 8,4 -6,3 -8,-1 -4,-1 -7,-3zm-1468 570c8,-11 174,-129 198,-146 155,-110 207,-137 353,-225 39,-23 112,-56 153,-76 25,-13 53,-24 80,-35 70,-28 104,-39 174,-58 158,-45 335,-58 498,-25l50 12c9,4 2,1 7,4l-79 -12c-113,-15 -256,-3 -363,19 -90,18 -181,49 -265,83 -27,11 -57,22 -83,35 -25,12 -51,24 -77,37 -16,8 -24,13 -39,21 -143,71 -263,156 -394,242l-136 97c-12,9 -22,16 -35,25 -13,9 -24,11 -42,2zm1450 -584c4,-4 13,5 4,2 0,0 -10,4 -4,-2zm-14 -4c4,-3 13,6 4,2 0,0 -10,4 -4,-2zm-14 -3c18,0 6,0 11,3 -19,0 -5,0 -11,-3zm46 21c-18,0 -38,-6 -58,-9 -418,-60 -801,151 -1134,372l-269 193c-21,16 -16,15 -49,7l74 -58c141,-105 366,-270 522,-348 104,-51 112,-59 231,-106 216,-85 427,-109 657,-60 2,0 12,2 14,3 1,1 4,2 5,2 9,4 2,1 7,4zm-63 -35l1 1c0,0 -1,-1 -1,-1zm-17 -3c4,-5 19,5 4,1 0,0 -10,5 -4,-1zm-14 -4c17,0 5,0 10,4 -18,0 -5,-1 -10,-4zm48 21c-18,0 -38,-6 -57,-9 -212,-34 -431,15 -622,91 -59,24 -165,75 -225,109l-124 74c-15,9 -25,17 -40,26 -69,40 -313,217 -388,280 -25,20 -20,9 -50,6 45,-38 104,-81 150,-118l154 -113c27,-19 51,-37 78,-55l82 -53c30,-18 55,-35 85,-51l131 -71c119,-60 171,-73 291,-112 118,-38 292,-47 424,-29l111 25zm-66 -35l1 1c0,0 -1,-1 -1,-1zm-14 -3c4,-4 14,5 4,1 0,0 -9,4 -4,-1zm-14 -4c4,-4 20,6 5,2 -1,-1 -11,4 -5,-2zm46 21c-19,0 -38,-6 -57,-9 -238,-36 -494,27 -704,132l-132 70c-16,8 -27,15 -42,24l-163 104c-82,55 -155,112 -233,170l-77 60c-74,60 -45,41 -88,40 12,-17 90,-76 108,-90 136,-104 200,-157 351,-258 51,-33 205,-124 258,-145l94 -41c166,-72 388,-113 574,-82l111 25zm-63 -35l1 1c0,0 -1,0 -1,-1zm-14 -3c4,-4 13,5 4,2 0,0 -10,4 -4,-2zm-17 -4c18,0 6,0 10,4 -18,0 -5,0 -10,-4zm0 0c-2,0 -6,0 -7,0 -6,-2 -4,-1 -7,-3 2,0 6,0 7,0 6,2 3,1 7,3zm-1440 626c4,-14 30,-31 42,-41l110 -91c12,-10 21,-17 33,-27l65 -50c86,-69 179,-130 272,-190 46,-30 132,-77 183,-103 140,-70 340,-138 498,-138 109,0 155,1 259,27 4,1 7,1 11,3l12 5c-24,0 -102,-21 -198,-21 -312,0 -555,139 -760,260 -58,35 -121,82 -178,121 -13,9 -21,15 -34,25 -13,10 -24,17 -36,26l-233 185c-22,18 -16,9 -46,9zm1426 -629c-19,0 -39,-6 -58,-9 -165,-26 -360,7 -515,66 -93,36 -143,63 -227,106 -94,49 -161,99 -246,155 -52,34 -326,246 -374,293 -19,19 -19,15 -48,8l69 -63c127,-102 240,-203 380,-295 172,-114 335,-211 547,-264 39,-10 126,-26 169,-28 12,-1 24,0 35,0 15,-1 15,-4 31,-4 39,-1 142,10 183,20l47 11c9,4 3,1 7,4z"/>
</svg>
